<svg xmlns="http://www.w3.org/2000/svg" width="982" height="989.33" viewBox="0 0 982 989.33" role="img" aria-label="How to write ഏഴ് ൭: 4 parts, ഏ, ഴ, ്, ൭, one after another"><title>Writing ഏഴ് ൭</title><desc>4 parts written one after another: ഏ, ഴ, ്, ൭ (malayalam). The parts are in the order the hand writes them, which is not always the order they are typed: a vowel sign written to the left of its consonant comes before it. Each vowel sign is drawn on its own, without the consonant it attaches to. Each part has its own group of frames; frame N of a group shows movements 1 to N of that part, the movement being added drawn in ink over the finished part, whose outline is read from _fonts/NotoSansMalayalam-Static.ttf. Each part is drawn at its own scale from its own cited stroke order, so the strip does not show how large the parts are next to each other, how far apart they sit, or any join between them. Stroke order: ഏ: Rodney F. Moag, Malayalam: A University Course and Reference Grammar (University of Texas at Austin South Asia Institute and COERLL, updated April 2018; CC BY-NC-SA 4.0), Table II &apos;How to Write Word-Initial Vowel Symbols&apos;, p. xviii: movements 1-7 for ഏ, written by hand by Thomas Joseph &lt;https://github.com/matjic/malayalam/blob/7141acd2f310bc8928822a7aec61d1149efa6fa3/docs/assets/images/front-writing-028.jpg&gt;; ഴ: Sriveenkat, Ml ഴ order.gif, Malayalam letter LLLA stroke-order animation, 00:03.0–00:07.4 (Wikimedia Commons, 1 July 2023) &lt;https://commons.wikimedia.org/wiki/File:Ml_%E0%B4%B4_order.gif&gt;; ്: Sachin Nandakumar, Jayasree: Malayalam handwriting, animated stroke by stroke (github.com/sachn1/jayasree, commit e0c9d57, October 2026), js/src/stroke-data.raw.json: the hand-recorded centre-line stroke for ്, drawn alone; &quot;Jayasree&quot; by Sachin Nandakumar, CC BY 4.0 &lt;https://github.com/sachn1/jayasree/blob/e0c9d57dd32031c948da4d5f8432aae3e22c5bba/js/src/stroke-data.raw.json&gt;; ൭: Sachin Nandakumar, Jayasree: Malayalam handwriting, animated stroke by stroke (github.com/sachn1/jayasree, commit e0c9d57, October 2026), js/src/stroke-data.raw.json: the hand-recorded centre-line stroke for ൭; &quot;Jayasree&quot; by Sachin Nandakumar, CC BY 4.0 &lt;https://github.com/sachn1/jayasree/blob/e0c9d57dd32031c948da4d5f8432aae3e22c5bba/js/src/stroke-data.raw.json&gt;. Source notes on variation: ഏ: Moag&apos;s Table II (p. xviii) starts at the foot of the small left arch and climbs clockwise over it to the bar (1), draws the bar to the right (2), climbs the stem (3), runs back down it (4), climbs clockwise over the big arch (5), comes down its right side to the middle (6) and rounds the lower bowl to finish at the bottom right (7). Moag&apos;s book is CC BY-NC-SA 4.0, so only these facts (order, start, direction and end) are cited; no drawing is copied. The page is read from the scan in Mathew Jacob&apos;s digital edition (github.com/matjic/malayalam, commit 7141acd), which notes that the numbers mark drawing movements that can belong to one continuous stroke, not pen lifts. The grahyam online-handwriting samples (github.com/bluebottlewize/grahyam, no licence, cited as counts only) keep no pen-up marker, but none of the 6 unique samples jumps between consecutive points the way a lift would; they most often start at the middle left (4 of 6) and end at the middle right (3 of 6). SPACE Kerala&apos;s Thooval (GPL-3.0, facts only) starts its EE.png at the lower left and ends it at the lower right. Its shape, start and end match Moag&apos;s ഏ, which settles that Thooval&apos;s EE.png is this letter. Only six grahyam samples exist, so the lift count rests on few recordings: confidence is medium. The path is fitted to the bundled Noto Sans Malayalam outline rather than to Moag&apos;s drawing; in that outline the stem runs on below the line and round into the big arch, so the run back down the stem follows it there. ഴ: The 47-frame Gayathri-font animation writes ഴ in one uninterrupted run: left entry arch, clockwise right loop, then the descending inner return and lower hook. This is one attested pedagogical order fitted to the bundled Noto Sans Malayalam outline. ്: Jayasree records the candrakkala drawn alone as one stroke: it starts at the left tip, dips round the bottom of the cup and rises to the right tip (start upper left, end upper right). This is the sign&apos;s own ductus only; where it goes against its carrier stays the compositionSource&apos;s claim, and no written order against a carrier is claimed. Jayasree keeps one recorded gesture per pen-down stroke, so one stroke means the recorder did not lift. Only these facts (stroke count, start, order, direction and end) are taken; no recorded coordinate is copied. The stroke data is licensed CC BY 4.0 (https://creativecommons.org/licenses/by/4.0/) as &quot;Jayasree&quot; by Sachin Nandakumar, https://github.com/sachn1/jayasree; this record adapts it, and the pen path is fitted to the bundled Noto Sans Malayalam outline rather than to the recording, which was drawn over the Manjari typeface. One recorder, so confidence is medium. ൭: Jayasree records ൭ as one stroke: from the inner end of the small loop, clockwise round it, up the left side and over the top, then down the right and round below the line to the left (start at the inner loop, end below the line at the left). Noto joins the loop&apos;s inner end to the outer stroke, so the path starts at that join. Jayasree keeps one recorded gesture per pen-down stroke, so one stroke means the recorder did not lift. Only these facts (stroke count, start, order, direction and end) are taken; no recorded coordinate is copied. The stroke data is licensed CC BY 4.0 (https://creativecommons.org/licenses/by/4.0/) as &quot;Jayasree&quot; by Sachin Nandakumar, https://github.com/sachn1/jayasree; this record adapts it, and the pen path is fitted to the bundled Noto Sans Malayalam outline rather than to the recording, which was drawn over the Manjari typeface. One recorder, so confidence is medium.</desc><rect x="0" y="0" width="982" height="989.33" fill="#ffffff"/><text x="16" y="31" font-family="Latin Modern Sans, sans-serif" font-size="15" fill="#172033">How it is written — 4 parts, one after another</text><text x="16" y="54" font-family="Latin Modern Sans, sans-serif" font-size="12" fill="#172033">Part 1 of 4 — one unbroken stroke · 7 movements</text><rect x="16" y="61" width="150" height="142.68" rx="6" fill="#fdfdfc" stroke="#dbe1ea" stroke-width="1"/><svg x="16" y="61" width="150" height="142.68" viewBox="-38 -636 1347 1281.3" preserveAspectRatio="xMidYMid meet" overflow="hidden"><g transform="scale(1,-1)"><path class="ductus__glyph" d="M229 346Q297 346 340.5 320.5Q384 295 405.5 255.5Q427 216 427 173Q427 133 414 102Q401 71 382 57L357 70L864 70L864 0L328 0L299 52Q319 72 331 96.5Q343 121 343 158Q343 212 314 244Q285 276 229 276Q194 276 168.5 260.5Q143 245 129.5 220Q116 195 116 164Q116 130 130 102Q144 74 175 51L129 -7Q86 23 59 66Q32 109 32 166Q32 219 56.5 259.5Q81 300 125.5 323Q170 346 229 346ZM945 566Q1022 566 1076.5 546.5Q1131 527 1164.5 493.5Q1198 460 1213.5 418.5Q1229 377 1229 332Q1229 285 1212.5 248.5Q1196 212 1168 185Q1140 158 1104 141L1107 146Q1167 125 1203 81Q1239 37 1239 -36Q1239 -101 1214 -143.5Q1189 -186 1145 -207Q1101 -228 1042 -228Q1027 -228 1003 -226Q979 -224 965 -220L982 -151Q995 -154 1011 -155.5Q1027 -157 1037 -157Q1074 -157 1099.5 -142.5Q1125 -128 1138 -100.5Q1151 -73 1151 -34Q1151 25 1114.5 64.5Q1078 104 1002 104L1002 173Q1047 183 1078 202Q1109 221 1125 253Q1141 285 1141 332Q1141 373 1122 410Q1103 447 1060 470.5Q1017 494 944 494Q842 494 779 448.5Q716 403 687.5 322.5Q659 242 659 137Q659 115 660 92.5Q661 70 663 51Q663 46 663.5 41.5Q664 37 665 32Q670 -37 689.5 -79Q709 -121 736.5 -140Q764 -159 793 -159Q823 -159 836 -139Q842 -130 845 -115Q848 -100 848 -75L848 406L935 406L935 -56Q935 -105 926.5 -135.5Q918 -166 900 -187Q883 -206 857.5 -217Q832 -228 796 -228Q731 -228 680 -187.5Q629 -147 600 -64Q571 19 571 144Q571 237 594 314Q617 391 663.5 447.5Q710 504 780.5 535Q851 566 945 566Z" fill="#e0ddd6" fill-rule="nonzero"/><path class="ductus__done" d="M124 44 L124 44" fill="none" stroke="#9aa1ad" stroke-width="26" stroke-linecap="round" stroke-linejoin="round"/><path class="ductus__pen" d="M124 44 L85 106 L76 177 L100 244 L154 293 L224 308 L296 300 L353 255 L383 190 L378 118 L360 48" fill="none" stroke="#3b5bdb" stroke-width="26" stroke-linecap="round" stroke-linejoin="round"/><circle class="ductus__tip" cx="360" cy="48" r="34" fill="#3b5bdb"/></g><text class="ductus__caption" x="635.5" y="475.9" text-anchor="middle" font-size="107.9" fill="#6b7280"><tspan x="635.5" y="475.9">1. climb clockwise over</tspan><tspan x="635.5" y="607.5">the small arch</tspan></text></svg><rect x="176" y="61" width="150" height="142.68" rx="6" fill="#fdfdfc" stroke="#dbe1ea" stroke-width="1"/><svg x="176" y="61" width="150" height="142.68" viewBox="-38 -636 1347 1281.3" preserveAspectRatio="xMidYMid meet" overflow="hidden"><g transform="scale(1,-1)"><path class="ductus__glyph" d="M229 346Q297 346 340.5 320.5Q384 295 405.5 255.5Q427 216 427 173Q427 133 414 102Q401 71 382 57L357 70L864 70L864 0L328 0L299 52Q319 72 331 96.5Q343 121 343 158Q343 212 314 244Q285 276 229 276Q194 276 168.5 260.5Q143 245 129.5 220Q116 195 116 164Q116 130 130 102Q144 74 175 51L129 -7Q86 23 59 66Q32 109 32 166Q32 219 56.5 259.5Q81 300 125.5 323Q170 346 229 346ZM945 566Q1022 566 1076.5 546.5Q1131 527 1164.5 493.5Q1198 460 1213.5 418.5Q1229 377 1229 332Q1229 285 1212.5 248.5Q1196 212 1168 185Q1140 158 1104 141L1107 146Q1167 125 1203 81Q1239 37 1239 -36Q1239 -101 1214 -143.5Q1189 -186 1145 -207Q1101 -228 1042 -228Q1027 -228 1003 -226Q979 -224 965 -220L982 -151Q995 -154 1011 -155.5Q1027 -157 1037 -157Q1074 -157 1099.5 -142.5Q1125 -128 1138 -100.5Q1151 -73 1151 -34Q1151 25 1114.5 64.5Q1078 104 1002 104L1002 173Q1047 183 1078 202Q1109 221 1125 253Q1141 285 1141 332Q1141 373 1122 410Q1103 447 1060 470.5Q1017 494 944 494Q842 494 779 448.5Q716 403 687.5 322.5Q659 242 659 137Q659 115 660 92.5Q661 70 663 51Q663 46 663.5 41.5Q664 37 665 32Q670 -37 689.5 -79Q709 -121 736.5 -140Q764 -159 793 -159Q823 -159 836 -139Q842 -130 845 -115Q848 -100 848 -75L848 406L935 406L935 -56Q935 -105 926.5 -135.5Q918 -166 900 -187Q883 -206 857.5 -217Q832 -228 796 -228Q731 -228 680 -187.5Q629 -147 600 -64Q571 19 571 144Q571 237 594 314Q617 391 663.5 447.5Q710 504 780.5 535Q851 566 945 566Z" fill="#e0ddd6" fill-rule="nonzero"/><path class="ductus__done" d="M124 44 L85 106 L76 177 L100 244 L154 293 L224 308 L296 300 L353 255 L383 190 L378 118 L360 48 L360 48" fill="none" stroke="#9aa1ad" stroke-width="26" stroke-linecap="round" stroke-linejoin="round"/><path class="ductus__pen" d="M360 48 L424 36 L489 36 L555 36 L621 34 L687 32 L753 32 L819 32 L884 36" fill="none" stroke="#3b5bdb" stroke-width="26" stroke-linecap="round" stroke-linejoin="round"/><circle class="ductus__tip" cx="884" cy="36" r="34" fill="#3b5bdb"/></g><text class="ductus__caption" x="635.5" y="475.9" text-anchor="middle" font-size="107.9" fill="#6b7280"><tspan x="635.5" y="475.9">2. run right along the</tspan><tspan x="635.5" y="607.5">bar</tspan></text></svg><rect x="336" y="61" width="150" height="142.68" rx="6" fill="#fdfdfc" stroke="#dbe1ea" stroke-width="1"/><svg x="336" y="61" width="150" height="142.68" viewBox="-38 -636 1347 1281.3" preserveAspectRatio="xMidYMid meet" overflow="hidden"><g transform="scale(1,-1)"><path class="ductus__glyph" d="M229 346Q297 346 340.5 320.5Q384 295 405.5 255.5Q427 216 427 173Q427 133 414 102Q401 71 382 57L357 70L864 70L864 0L328 0L299 52Q319 72 331 96.5Q343 121 343 158Q343 212 314 244Q285 276 229 276Q194 276 168.5 260.5Q143 245 129.5 220Q116 195 116 164Q116 130 130 102Q144 74 175 51L129 -7Q86 23 59 66Q32 109 32 166Q32 219 56.5 259.5Q81 300 125.5 323Q170 346 229 346ZM945 566Q1022 566 1076.5 546.5Q1131 527 1164.5 493.5Q1198 460 1213.5 418.5Q1229 377 1229 332Q1229 285 1212.5 248.5Q1196 212 1168 185Q1140 158 1104 141L1107 146Q1167 125 1203 81Q1239 37 1239 -36Q1239 -101 1214 -143.5Q1189 -186 1145 -207Q1101 -228 1042 -228Q1027 -228 1003 -226Q979 -224 965 -220L982 -151Q995 -154 1011 -155.5Q1027 -157 1037 -157Q1074 -157 1099.5 -142.5Q1125 -128 1138 -100.5Q1151 -73 1151 -34Q1151 25 1114.5 64.5Q1078 104 1002 104L1002 173Q1047 183 1078 202Q1109 221 1125 253Q1141 285 1141 332Q1141 373 1122 410Q1103 447 1060 470.5Q1017 494 944 494Q842 494 779 448.5Q716 403 687.5 322.5Q659 242 659 137Q659 115 660 92.5Q661 70 663 51Q663 46 663.5 41.5Q664 37 665 32Q670 -37 689.5 -79Q709 -121 736.5 -140Q764 -159 793 -159Q823 -159 836 -139Q842 -130 845 -115Q848 -100 848 -75L848 406L935 406L935 -56Q935 -105 926.5 -135.5Q918 -166 900 -187Q883 -206 857.5 -217Q832 -228 796 -228Q731 -228 680 -187.5Q629 -147 600 -64Q571 19 571 144Q571 237 594 314Q617 391 663.5 447.5Q710 504 780.5 535Q851 566 945 566Z" fill="#e0ddd6" fill-rule="nonzero"/><path class="ductus__done" d="M124 44 L85 106 L76 177 L100 244 L154 293 L224 308 L296 300 L353 255 L383 190 L378 118 L360 48 L424 36 L489 36 L555 36 L621 34 L687 32 L753 32 L819 32 L884 36" fill="none" stroke="#9aa1ad" stroke-width="26" stroke-linecap="round" stroke-linejoin="round"/><path class="ductus__pen" d="M884 36 L884 36 L888 101 L888 167 L892 233 L892 298 L892 364" fill="none" stroke="#3b5bdb" stroke-width="26" stroke-linecap="round" stroke-linejoin="round"/><circle class="ductus__tip" cx="892" cy="364" r="34" fill="#3b5bdb"/></g><text class="ductus__caption" x="635.5" y="475.9" text-anchor="middle" font-size="107.9" fill="#6b7280"><tspan x="635.5" y="475.9">3. climb the stem</tspan></text></svg><rect x="496" y="61" width="150" height="142.68" rx="6" fill="#fdfdfc" stroke="#dbe1ea" stroke-width="1"/><svg x="496" y="61" width="150" height="142.68" viewBox="-38 -636 1347 1281.3" preserveAspectRatio="xMidYMid meet" overflow="hidden"><g transform="scale(1,-1)"><path class="ductus__glyph" d="M229 346Q297 346 340.5 320.5Q384 295 405.5 255.5Q427 216 427 173Q427 133 414 102Q401 71 382 57L357 70L864 70L864 0L328 0L299 52Q319 72 331 96.5Q343 121 343 158Q343 212 314 244Q285 276 229 276Q194 276 168.5 260.5Q143 245 129.5 220Q116 195 116 164Q116 130 130 102Q144 74 175 51L129 -7Q86 23 59 66Q32 109 32 166Q32 219 56.5 259.5Q81 300 125.5 323Q170 346 229 346ZM945 566Q1022 566 1076.5 546.5Q1131 527 1164.5 493.5Q1198 460 1213.5 418.5Q1229 377 1229 332Q1229 285 1212.5 248.5Q1196 212 1168 185Q1140 158 1104 141L1107 146Q1167 125 1203 81Q1239 37 1239 -36Q1239 -101 1214 -143.5Q1189 -186 1145 -207Q1101 -228 1042 -228Q1027 -228 1003 -226Q979 -224 965 -220L982 -151Q995 -154 1011 -155.5Q1027 -157 1037 -157Q1074 -157 1099.5 -142.5Q1125 -128 1138 -100.5Q1151 -73 1151 -34Q1151 25 1114.5 64.5Q1078 104 1002 104L1002 173Q1047 183 1078 202Q1109 221 1125 253Q1141 285 1141 332Q1141 373 1122 410Q1103 447 1060 470.5Q1017 494 944 494Q842 494 779 448.5Q716 403 687.5 322.5Q659 242 659 137Q659 115 660 92.5Q661 70 663 51Q663 46 663.5 41.5Q664 37 665 32Q670 -37 689.5 -79Q709 -121 736.5 -140Q764 -159 793 -159Q823 -159 836 -139Q842 -130 845 -115Q848 -100 848 -75L848 406L935 406L935 -56Q935 -105 926.5 -135.5Q918 -166 900 -187Q883 -206 857.5 -217Q832 -228 796 -228Q731 -228 680 -187.5Q629 -147 600 -64Q571 19 571 144Q571 237 594 314Q617 391 663.5 447.5Q710 504 780.5 535Q851 566 945 566Z" fill="#e0ddd6" fill-rule="nonzero"/><path class="ductus__done" d="M124 44 L85 106 L76 177 L100 244 L154 293 L224 308 L296 300 L353 255 L383 190 L378 118 L360 48 L424 36 L489 36 L555 36 L621 34 L687 32 L753 32 L819 32 L884 36 L888 101 L888 167 L892 233 L892 298 L892 364 L892 364" fill="none" stroke="#9aa1ad" stroke-width="26" stroke-linecap="round" stroke-linejoin="round"/><path class="ductus__pen" d="M892 364 L892 296 L892 229 L892 161 L892 94 L885 27 L888 -41 L888 -108 L859 -168 L798 -192 L733 -179 L682 -134 L647 -77 L628 -12" fill="none" stroke="#3b5bdb" stroke-width="26" stroke-linecap="round" stroke-linejoin="round"/><circle class="ductus__tip" cx="628" cy="-12" r="34" fill="#3b5bdb"/></g><text class="ductus__caption" x="635.5" y="475.9" text-anchor="middle" font-size="107.9" fill="#6b7280"><tspan x="635.5" y="475.9">4. retrace it down and</tspan><tspan x="635.5" y="607.5">round the loop</tspan></text></svg><rect x="656" y="61" width="150" height="142.68" rx="6" fill="#fdfdfc" stroke="#dbe1ea" stroke-width="1"/><svg x="656" y="61" width="150" height="142.68" viewBox="-38 -636 1347 1281.3" preserveAspectRatio="xMidYMid meet" overflow="hidden"><g transform="scale(1,-1)"><path class="ductus__glyph" d="M229 346Q297 346 340.5 320.5Q384 295 405.5 255.5Q427 216 427 173Q427 133 414 102Q401 71 382 57L357 70L864 70L864 0L328 0L299 52Q319 72 331 96.5Q343 121 343 158Q343 212 314 244Q285 276 229 276Q194 276 168.5 260.5Q143 245 129.5 220Q116 195 116 164Q116 130 130 102Q144 74 175 51L129 -7Q86 23 59 66Q32 109 32 166Q32 219 56.5 259.5Q81 300 125.5 323Q170 346 229 346ZM945 566Q1022 566 1076.5 546.5Q1131 527 1164.5 493.5Q1198 460 1213.5 418.5Q1229 377 1229 332Q1229 285 1212.5 248.5Q1196 212 1168 185Q1140 158 1104 141L1107 146Q1167 125 1203 81Q1239 37 1239 -36Q1239 -101 1214 -143.5Q1189 -186 1145 -207Q1101 -228 1042 -228Q1027 -228 1003 -226Q979 -224 965 -220L982 -151Q995 -154 1011 -155.5Q1027 -157 1037 -157Q1074 -157 1099.5 -142.5Q1125 -128 1138 -100.5Q1151 -73 1151 -34Q1151 25 1114.5 64.5Q1078 104 1002 104L1002 173Q1047 183 1078 202Q1109 221 1125 253Q1141 285 1141 332Q1141 373 1122 410Q1103 447 1060 470.5Q1017 494 944 494Q842 494 779 448.5Q716 403 687.5 322.5Q659 242 659 137Q659 115 660 92.5Q661 70 663 51Q663 46 663.5 41.5Q664 37 665 32Q670 -37 689.5 -79Q709 -121 736.5 -140Q764 -159 793 -159Q823 -159 836 -139Q842 -130 845 -115Q848 -100 848 -75L848 406L935 406L935 -56Q935 -105 926.5 -135.5Q918 -166 900 -187Q883 -206 857.5 -217Q832 -228 796 -228Q731 -228 680 -187.5Q629 -147 600 -64Q571 19 571 144Q571 237 594 314Q617 391 663.5 447.5Q710 504 780.5 535Q851 566 945 566Z" fill="#e0ddd6" fill-rule="nonzero"/><path class="ductus__done" d="M124 44 L85 106 L76 177 L100 244 L154 293 L224 308 L296 300 L353 255 L383 190 L378 118 L360 48 L424 36 L489 36 L555 36 L621 34 L687 32 L753 32 L819 32 L884 36 L888 101 L888 167 L892 233 L892 298 L892 364 L892 296 L892 229 L892 161 L892 94 L885 27 L888 -41 L888 -108 L859 -168 L798 -192 L733 -179 L682 -134 L647 -77 L628 -12 L628 -12" fill="none" stroke="#9aa1ad" stroke-width="26" stroke-linecap="round" stroke-linejoin="round"/><path class="ductus__pen" d="M628 -12 L616 57 L616 128 L616 199 L627 269 L647 336 L679 400 L725 453 L782 494 L849 518 L919 528 L989 529 L1058 513 L1117 475 L1163 422 L1182 354 L1180 284" fill="none" stroke="#3b5bdb" stroke-width="26" stroke-linecap="round" stroke-linejoin="round"/><circle class="ductus__tip" cx="1180" cy="284" r="34" fill="#3b5bdb"/></g><text class="ductus__caption" x="635.5" y="475.9" text-anchor="middle" font-size="107.9" fill="#6b7280"><tspan x="635.5" y="475.9">5. climb clockwise over</tspan><tspan x="635.5" y="607.5">the big arch</tspan></text></svg><rect x="816" y="61" width="150" height="142.68" rx="6" fill="#fdfdfc" stroke="#dbe1ea" stroke-width="1"/><svg x="816" y="61" width="150" height="142.68" viewBox="-38 -636 1347 1281.3" preserveAspectRatio="xMidYMid meet" overflow="hidden"><g transform="scale(1,-1)"><path class="ductus__glyph" d="M229 346Q297 346 340.5 320.5Q384 295 405.5 255.5Q427 216 427 173Q427 133 414 102Q401 71 382 57L357 70L864 70L864 0L328 0L299 52Q319 72 331 96.5Q343 121 343 158Q343 212 314 244Q285 276 229 276Q194 276 168.5 260.5Q143 245 129.5 220Q116 195 116 164Q116 130 130 102Q144 74 175 51L129 -7Q86 23 59 66Q32 109 32 166Q32 219 56.5 259.5Q81 300 125.5 323Q170 346 229 346ZM945 566Q1022 566 1076.5 546.5Q1131 527 1164.5 493.5Q1198 460 1213.5 418.5Q1229 377 1229 332Q1229 285 1212.5 248.5Q1196 212 1168 185Q1140 158 1104 141L1107 146Q1167 125 1203 81Q1239 37 1239 -36Q1239 -101 1214 -143.5Q1189 -186 1145 -207Q1101 -228 1042 -228Q1027 -228 1003 -226Q979 -224 965 -220L982 -151Q995 -154 1011 -155.5Q1027 -157 1037 -157Q1074 -157 1099.5 -142.5Q1125 -128 1138 -100.5Q1151 -73 1151 -34Q1151 25 1114.5 64.5Q1078 104 1002 104L1002 173Q1047 183 1078 202Q1109 221 1125 253Q1141 285 1141 332Q1141 373 1122 410Q1103 447 1060 470.5Q1017 494 944 494Q842 494 779 448.5Q716 403 687.5 322.5Q659 242 659 137Q659 115 660 92.5Q661 70 663 51Q663 46 663.5 41.5Q664 37 665 32Q670 -37 689.5 -79Q709 -121 736.5 -140Q764 -159 793 -159Q823 -159 836 -139Q842 -130 845 -115Q848 -100 848 -75L848 406L935 406L935 -56Q935 -105 926.5 -135.5Q918 -166 900 -187Q883 -206 857.5 -217Q832 -228 796 -228Q731 -228 680 -187.5Q629 -147 600 -64Q571 19 571 144Q571 237 594 314Q617 391 663.5 447.5Q710 504 780.5 535Q851 566 945 566Z" fill="#e0ddd6" fill-rule="nonzero"/><path class="ductus__done" d="M124 44 L85 106 L76 177 L100 244 L154 293 L224 308 L296 300 L353 255 L383 190 L378 118 L360 48 L424 36 L489 36 L555 36 L621 34 L687 32 L753 32 L819 32 L884 36 L888 101 L888 167 L892 233 L892 298 L892 364 L892 296 L892 229 L892 161 L892 94 L885 27 L888 -41 L888 -108 L859 -168 L798 -192 L733 -179 L682 -134 L647 -77 L628 -12 L616 57 L616 128 L616 199 L627 269 L647 336 L679 400 L725 453 L782 494 L849 518 L919 528 L989 529 L1058 513 L1117 475 L1163 422 L1182 354 L1180 284 L1180 284" fill="none" stroke="#9aa1ad" stroke-width="26" stroke-linecap="round" stroke-linejoin="round"/><path class="ductus__pen" d="M1180 284 L1148 225 L1101 177 L1044 144" fill="none" stroke="#3b5bdb" stroke-width="26" stroke-linecap="round" stroke-linejoin="round"/><circle class="ductus__tip" cx="1044" cy="144" r="34" fill="#3b5bdb"/></g><text class="ductus__caption" x="635.5" y="475.9" text-anchor="middle" font-size="107.9" fill="#6b7280"><tspan x="635.5" y="475.9">6. come down to the</tspan><tspan x="635.5" y="607.5">middle</tspan></text></svg><rect x="16" y="215.68" width="150" height="142.68" rx="6" fill="#fdfdfc" stroke="#dbe1ea" stroke-width="1"/><svg x="16" y="215.68" width="150" height="142.68" viewBox="-38 -636 1347 1281.3" preserveAspectRatio="xMidYMid meet" overflow="hidden"><g transform="scale(1,-1)"><path class="ductus__glyph" d="M229 346Q297 346 340.5 320.5Q384 295 405.5 255.5Q427 216 427 173Q427 133 414 102Q401 71 382 57L357 70L864 70L864 0L328 0L299 52Q319 72 331 96.5Q343 121 343 158Q343 212 314 244Q285 276 229 276Q194 276 168.5 260.5Q143 245 129.5 220Q116 195 116 164Q116 130 130 102Q144 74 175 51L129 -7Q86 23 59 66Q32 109 32 166Q32 219 56.5 259.5Q81 300 125.5 323Q170 346 229 346ZM945 566Q1022 566 1076.5 546.5Q1131 527 1164.5 493.5Q1198 460 1213.5 418.5Q1229 377 1229 332Q1229 285 1212.5 248.5Q1196 212 1168 185Q1140 158 1104 141L1107 146Q1167 125 1203 81Q1239 37 1239 -36Q1239 -101 1214 -143.5Q1189 -186 1145 -207Q1101 -228 1042 -228Q1027 -228 1003 -226Q979 -224 965 -220L982 -151Q995 -154 1011 -155.5Q1027 -157 1037 -157Q1074 -157 1099.5 -142.5Q1125 -128 1138 -100.5Q1151 -73 1151 -34Q1151 25 1114.5 64.5Q1078 104 1002 104L1002 173Q1047 183 1078 202Q1109 221 1125 253Q1141 285 1141 332Q1141 373 1122 410Q1103 447 1060 470.5Q1017 494 944 494Q842 494 779 448.5Q716 403 687.5 322.5Q659 242 659 137Q659 115 660 92.5Q661 70 663 51Q663 46 663.5 41.5Q664 37 665 32Q670 -37 689.5 -79Q709 -121 736.5 -140Q764 -159 793 -159Q823 -159 836 -139Q842 -130 845 -115Q848 -100 848 -75L848 406L935 406L935 -56Q935 -105 926.5 -135.5Q918 -166 900 -187Q883 -206 857.5 -217Q832 -228 796 -228Q731 -228 680 -187.5Q629 -147 600 -64Q571 19 571 144Q571 237 594 314Q617 391 663.5 447.5Q710 504 780.5 535Q851 566 945 566Z" fill="#e0ddd6" fill-rule="nonzero"/><path class="ductus__done" d="M124 44 L85 106 L76 177 L100 244 L154 293 L224 308 L296 300 L353 255 L383 190 L378 118 L360 48 L424 36 L489 36 L555 36 L621 34 L687 32 L753 32 L819 32 L884 36 L888 101 L888 167 L892 233 L892 298 L892 364 L892 296 L892 229 L892 161 L892 94 L885 27 L888 -41 L888 -108 L859 -168 L798 -192 L733 -179 L682 -134 L647 -77 L628 -12 L616 57 L616 128 L616 199 L627 269 L647 336 L679 400 L725 453 L782 494 L849 518 L919 528 L989 529 L1058 513 L1117 475 L1163 422 L1182 354 L1180 284 L1148 225 L1101 177 L1044 144 L1044 144" fill="none" stroke="#9aa1ad" stroke-width="26" stroke-linecap="round" stroke-linejoin="round"/><path class="ductus__pen" d="M1044 144 L1102 115 L1154 75 L1186 18 L1188 -49 L1179 -113 L1134 -162 L1074 -188 L1008 -192" fill="none" stroke="#3b5bdb" stroke-width="26" stroke-linecap="round" stroke-linejoin="round"/><circle class="ductus__tip" cx="1008" cy="-192" r="34" fill="#3b5bdb"/></g><text class="ductus__caption" x="635.5" y="475.9" text-anchor="middle" font-size="107.9" fill="#6b7280"><tspan x="635.5" y="475.9">7. round the lower bowl</tspan></text></svg><text x="16" y="384.36" font-family="Latin Modern Sans, sans-serif" font-size="12" fill="#172033">Part 2 of 4 — one unbroken stroke · 3 movements</text><rect x="16" y="391.36" width="150" height="224.4" rx="6" fill="#fdfdfc" stroke="#dbe1ea" stroke-width="1"/><svg x="16" y="391.36" width="150" height="224.4" viewBox="-33 -636 720 1077.1" preserveAspectRatio="xMidYMid meet" overflow="hidden"><g transform="scale(1,-1)"><path class="ductus__glyph" d="M263 404Q263 472 308 519Q353 566 441 566Q505 566 543.5 540Q582 514 599.5 474Q617 434 617 392Q617 325 584.5 270Q552 215 492.5 182.5Q433 150 351 150L330 150Q230 150 165 183Q100 216 68.5 273Q37 330 37 401Q37 439 49 480.5Q61 522 91 566L158 529Q136 491 129.5 462Q123 433 123 404Q123 340 149.5 299Q176 258 223 238.5Q270 219 332 219L351 219Q409 219 449 243Q489 267 510 307.5Q531 348 531 397Q531 436 511.5 466.5Q492 497 439 497Q407 497 386.5 484.5Q366 472 356.5 451Q347 430 347 403Q347 361 360.5 327Q374 293 391 261Q408 229 421.5 196Q435 163 435 123Q435 94 422.5 62.5Q410 31 375 9.5Q340 -12 272 -12Q235 -12 194 -3.5Q153 5 112 27L143 94Q170 78 202.5 68.5Q235 59 271 59Q321 59 336.5 78.5Q352 98 352 126Q352 164 338.5 195.5Q325 227 307.5 257.5Q290 288 276.5 323Q263 358 263 404Z" fill="#e0ddd6" fill-rule="nonzero"/><path class="ductus__done" d="M92 525 L92 525" fill="none" stroke="#9aa1ad" stroke-width="26" stroke-linecap="round" stroke-linejoin="round"/><path class="ductus__pen" d="M92 525 L65 480 L58 420 L68 360 L105 300 L165 245 L235 210 L300 190 L350 185" fill="none" stroke="#3b5bdb" stroke-width="26" stroke-linecap="round" stroke-linejoin="round"/><circle class="ductus__tip" cx="350" cy="185" r="34" fill="#3b5bdb"/></g><text class="ductus__caption" x="327" y="209.7" text-anchor="middle" font-size="57.7" fill="#6b7280"><tspan x="327" y="209.7">1. descend around the</tspan><tspan x="327" y="280.1">left entry arch and</tspan><tspan x="327" y="350.5">sweep right into the</tspan><tspan x="327" y="420.9">lower junction</tspan></text></svg><rect x="176" y="391.36" width="150" height="224.4" rx="6" fill="#fdfdfc" stroke="#dbe1ea" stroke-width="1"/><svg x="176" y="391.36" width="150" height="224.4" viewBox="-33 -636 720 1077.1" preserveAspectRatio="xMidYMid meet" overflow="hidden"><g transform="scale(1,-1)"><path class="ductus__glyph" d="M263 404Q263 472 308 519Q353 566 441 566Q505 566 543.5 540Q582 514 599.5 474Q617 434 617 392Q617 325 584.5 270Q552 215 492.5 182.5Q433 150 351 150L330 150Q230 150 165 183Q100 216 68.5 273Q37 330 37 401Q37 439 49 480.5Q61 522 91 566L158 529Q136 491 129.5 462Q123 433 123 404Q123 340 149.5 299Q176 258 223 238.5Q270 219 332 219L351 219Q409 219 449 243Q489 267 510 307.5Q531 348 531 397Q531 436 511.5 466.5Q492 497 439 497Q407 497 386.5 484.5Q366 472 356.5 451Q347 430 347 403Q347 361 360.5 327Q374 293 391 261Q408 229 421.5 196Q435 163 435 123Q435 94 422.5 62.5Q410 31 375 9.5Q340 -12 272 -12Q235 -12 194 -3.5Q153 5 112 27L143 94Q170 78 202.5 68.5Q235 59 271 59Q321 59 336.5 78.5Q352 98 352 126Q352 164 338.5 195.5Q325 227 307.5 257.5Q290 288 276.5 323Q263 358 263 404Z" fill="#e0ddd6" fill-rule="nonzero"/><path class="ductus__done" d="M92 525 L65 480 L58 420 L68 360 L105 300 L165 245 L235 210 L300 190 L350 185 L350 185" fill="none" stroke="#9aa1ad" stroke-width="26" stroke-linecap="round" stroke-linejoin="round"/><path class="ductus__pen" d="M350 185 L430 190 L500 245 L555 330 L572 410 L550 475 L500 525 L440 535 L385 515 L335 470 L305 410 L310 350 L340 290 L385 225" fill="none" stroke="#3b5bdb" stroke-width="26" stroke-linecap="round" stroke-linejoin="round"/><circle class="ductus__tip" cx="385" cy="225" r="34" fill="#3b5bdb"/></g><text class="ductus__caption" x="327" y="209.7" text-anchor="middle" font-size="57.7" fill="#6b7280"><tspan x="327" y="209.7">2. turn clockwise</tspan><tspan x="327" y="280.1">around the right loop</tspan><tspan x="327" y="350.5">and return through its</tspan><tspan x="327" y="420.9">inner side</tspan></text></svg><rect x="336" y="391.36" width="150" height="224.4" rx="6" fill="#fdfdfc" stroke="#dbe1ea" stroke-width="1"/><svg x="336" y="391.36" width="150" height="224.4" viewBox="-33 -636 720 1077.1" preserveAspectRatio="xMidYMid meet" overflow="hidden"><g transform="scale(1,-1)"><path class="ductus__glyph" d="M263 404Q263 472 308 519Q353 566 441 566Q505 566 543.5 540Q582 514 599.5 474Q617 434 617 392Q617 325 584.5 270Q552 215 492.5 182.5Q433 150 351 150L330 150Q230 150 165 183Q100 216 68.5 273Q37 330 37 401Q37 439 49 480.5Q61 522 91 566L158 529Q136 491 129.5 462Q123 433 123 404Q123 340 149.5 299Q176 258 223 238.5Q270 219 332 219L351 219Q409 219 449 243Q489 267 510 307.5Q531 348 531 397Q531 436 511.5 466.5Q492 497 439 497Q407 497 386.5 484.5Q366 472 356.5 451Q347 430 347 403Q347 361 360.5 327Q374 293 391 261Q408 229 421.5 196Q435 163 435 123Q435 94 422.5 62.5Q410 31 375 9.5Q340 -12 272 -12Q235 -12 194 -3.5Q153 5 112 27L143 94Q170 78 202.5 68.5Q235 59 271 59Q321 59 336.5 78.5Q352 98 352 126Q352 164 338.5 195.5Q325 227 307.5 257.5Q290 288 276.5 323Q263 358 263 404Z" fill="#e0ddd6" fill-rule="nonzero"/><path class="ductus__done" d="M92 525 L65 480 L58 420 L68 360 L105 300 L165 245 L235 210 L300 190 L350 185 L430 190 L500 245 L555 330 L572 410 L550 475 L500 525 L440 535 L385 515 L335 470 L305 410 L310 350 L340 290 L385 225 L385 225" fill="none" stroke="#9aa1ad" stroke-width="26" stroke-linecap="round" stroke-linejoin="round"/><path class="ductus__pen" d="M385 225 L395 165 L390 110 L355 60 L300 30 L235 25 L175 38 L125 60" fill="none" stroke="#3b5bdb" stroke-width="26" stroke-linecap="round" stroke-linejoin="round"/><circle class="ductus__tip" cx="125" cy="60" r="34" fill="#3b5bdb"/></g><text class="ductus__caption" x="327" y="209.7" text-anchor="middle" font-size="57.7" fill="#6b7280"><tspan x="327" y="209.7">3. descend through the</tspan><tspan x="327" y="280.1">inner return and curl</tspan><tspan x="327" y="350.5">left around the lower</tspan><tspan x="327" y="420.9">hook</tspan></text></svg><text x="512" y="384.36" font-family="Latin Modern Sans, sans-serif" font-size="12" fill="#172033">Part 3 of 4 — one unbroken stroke · 2 movements</text><rect x="512" y="391.36" width="150" height="161.44" rx="6" fill="#fdfdfc" stroke="#dbe1ea" stroke-width="1"/><svg x="512" y="391.36" width="150" height="161.44" viewBox="-362 -888 502 540.3" preserveAspectRatio="xMidYMid meet" overflow="hidden"><g transform="scale(1,-1)"><path class="ductus__glyph" d="M-111 591Q-169 591 -209.5 611.5Q-250 632 -271 668Q-292 704 -292 752Q-292 770 -289 788Q-286 806 -282 818L-208 804Q-211 794 -212.5 780.5Q-214 767 -214 755Q-214 720 -200 698.5Q-186 677 -162.5 668Q-139 659 -111 659Q-81 659 -58 668Q-35 677 -21.5 698.5Q-8 720 -8 755Q-8 767 -9.5 780.5Q-11 794 -14 804L60 818Q64 806 67 788Q70 770 70 752Q70 704 49 668Q28 632 -12.5 611.5Q-53 591 -111 591Z" fill="#e0ddd6" fill-rule="nonzero"/><path class="ductus__done" d="M-254 793 L-254 793" fill="none" stroke="#9aa1ad" stroke-width="26" stroke-linecap="round" stroke-linejoin="round"/><path class="ductus__pen" d="M-254 793 L-252 765 L-249 736 L-241 708 L-227 682 L-208 660 L-184 644 L-157 634 L-128 630" fill="none" stroke="#3b5bdb" stroke-width="26" stroke-linecap="round" stroke-linejoin="round"/><circle class="ductus__tip" cx="-128" cy="630" r="34" fill="#3b5bdb"/></g><text class="ductus__caption" x="-111" y="-410.8" text-anchor="middle" font-size="40.2" fill="#6b7280"><tspan x="-111" y="-410.8">1. start at the left tip</tspan><tspan x="-111" y="-361.8">and dip down</tspan></text></svg><rect x="672" y="391.36" width="150" height="161.44" rx="6" fill="#fdfdfc" stroke="#dbe1ea" stroke-width="1"/><svg x="672" y="391.36" width="150" height="161.44" viewBox="-362 -888 502 540.3" preserveAspectRatio="xMidYMid meet" overflow="hidden"><g transform="scale(1,-1)"><path class="ductus__glyph" d="M-111 591Q-169 591 -209.5 611.5Q-250 632 -271 668Q-292 704 -292 752Q-292 770 -289 788Q-286 806 -282 818L-208 804Q-211 794 -212.5 780.5Q-214 767 -214 755Q-214 720 -200 698.5Q-186 677 -162.5 668Q-139 659 -111 659Q-81 659 -58 668Q-35 677 -21.5 698.5Q-8 720 -8 755Q-8 767 -9.5 780.5Q-11 794 -14 804L60 818Q64 806 67 788Q70 770 70 752Q70 704 49 668Q28 632 -12.5 611.5Q-53 591 -111 591Z" fill="#e0ddd6" fill-rule="nonzero"/><path class="ductus__done" d="M-254 793 L-252 765 L-249 736 L-241 708 L-227 682 L-208 660 L-184 644 L-157 634 L-128 630 L-128 630" fill="none" stroke="#9aa1ad" stroke-width="26" stroke-linecap="round" stroke-linejoin="round"/><path class="ductus__pen" d="M-128 630 L-98 630 L-69 634 L-41 644 L-16 658 L4 679 L17 704 L26 732 L34 761 L45 791" fill="none" stroke="#3b5bdb" stroke-width="26" stroke-linecap="round" stroke-linejoin="round"/><circle class="ductus__tip" cx="45" cy="791" r="34" fill="#3b5bdb"/></g><text class="ductus__caption" x="-111" y="-410.8" text-anchor="middle" font-size="40.2" fill="#6b7280"><tspan x="-111" y="-410.8">2. round the bottom and</tspan><tspan x="-111" y="-361.8">rise to the right</tspan></text></svg><text x="16" y="641.76" font-family="Latin Modern Sans, sans-serif" font-size="12" fill="#172033">Part 4 of 4 — one unbroken stroke · 3 movements</text><rect x="16" y="648.76" width="150" height="214.07" rx="6" fill="#fdfdfc" stroke="#dbe1ea" stroke-width="1"/><svg x="16" y="648.76" width="150" height="214.07" viewBox="-31 -636 800 1141.7" preserveAspectRatio="xMidYMid meet" overflow="hidden"><g transform="scale(1,-1)"><path class="ductus__glyph" d="M374 566Q457 566 518.5 541Q580 516 620 469Q660 422 679.5 355Q699 288 699 205Q699 114 676.5 39Q654 -36 607.5 -89.5Q561 -143 489.5 -172Q418 -201 321 -201Q291 -201 260 -199Q229 -197 199 -191L208 -119Q231 -123 259.5 -125.5Q288 -128 319 -128Q403 -128 459 -101.5Q515 -75 548 -28.5Q581 18 595.5 78.5Q610 139 610 207Q610 347 548 420.5Q486 494 370 494Q298 494 241.5 459.5Q185 425 152.5 367Q120 309 120 237L120 225Q120 171 135 133.5Q150 96 177 77Q204 58 239 58Q265 58 284 70Q303 82 314 104.5Q325 127 325 158Q325 206 298.5 232Q272 258 231 258Q197 258 166 242.5Q135 227 109 201L77 248Q107 284 151.5 306Q196 328 245 328Q294 328 330.5 309Q367 290 387.5 253.5Q408 217 408 165Q408 110 387 70Q366 30 327.5 9Q289 -12 237 -12Q185 -12 139.5 14Q94 40 66.5 94.5Q39 149 39 232Q39 336 83.5 410.5Q128 485 204 525.5Q280 566 374 566Z" fill="#e0ddd6" fill-rule="nonzero"/><path class="ductus__done" d="M101 289 L101 289" fill="none" stroke="#9aa1ad" stroke-width="26" stroke-linecap="round" stroke-linejoin="round"/><path class="ductus__pen" d="M101 289 L120 279 L147 279 L177 283 L206 288 L235 291 L265 289 L292 280 L317 266 L337 245 L352 220 L361 192 L364 163 L361 134 L352 106 L339 80 L321 58 L297 41 L270 31 L241 28 L212 30 L184 38 L158 51 L135 70 L117 93 L104 119" fill="none" stroke="#3b5bdb" stroke-width="26" stroke-linecap="round" stroke-linejoin="round"/><circle class="ductus__tip" cx="104" cy="119" r="34" fill="#3b5bdb"/></g><text class="ductus__caption" x="369" y="405.1" text-anchor="middle" font-size="64.1" fill="#6b7280"><tspan x="369" y="405.1">1. curl clockwise round</tspan><tspan x="369" y="483.3">the small loop</tspan></text></svg><rect x="176" y="648.76" width="150" height="214.07" rx="6" fill="#fdfdfc" stroke="#dbe1ea" stroke-width="1"/><svg x="176" y="648.76" width="150" height="214.07" viewBox="-31 -636 800 1141.7" preserveAspectRatio="xMidYMid meet" overflow="hidden"><g transform="scale(1,-1)"><path class="ductus__glyph" d="M374 566Q457 566 518.5 541Q580 516 620 469Q660 422 679.5 355Q699 288 699 205Q699 114 676.5 39Q654 -36 607.5 -89.5Q561 -143 489.5 -172Q418 -201 321 -201Q291 -201 260 -199Q229 -197 199 -191L208 -119Q231 -123 259.5 -125.5Q288 -128 319 -128Q403 -128 459 -101.5Q515 -75 548 -28.5Q581 18 595.5 78.5Q610 139 610 207Q610 347 548 420.5Q486 494 370 494Q298 494 241.5 459.5Q185 425 152.5 367Q120 309 120 237L120 225Q120 171 135 133.5Q150 96 177 77Q204 58 239 58Q265 58 284 70Q303 82 314 104.5Q325 127 325 158Q325 206 298.5 232Q272 258 231 258Q197 258 166 242.5Q135 227 109 201L77 248Q107 284 151.5 306Q196 328 245 328Q294 328 330.5 309Q367 290 387.5 253.5Q408 217 408 165Q408 110 387 70Q366 30 327.5 9Q289 -12 237 -12Q185 -12 139.5 14Q94 40 66.5 94.5Q39 149 39 232Q39 336 83.5 410.5Q128 485 204 525.5Q280 566 374 566Z" fill="#e0ddd6" fill-rule="nonzero"/><path class="ductus__done" d="M101 289 L120 279 L147 279 L177 283 L206 288 L235 291 L265 289 L292 280 L317 266 L337 245 L352 220 L361 192 L364 163 L361 134 L352 106 L339 80 L321 58 L297 41 L270 31 L241 28 L212 30 L184 38 L158 51 L135 70 L117 93 L104 119 L104 119" fill="none" stroke="#9aa1ad" stroke-width="26" stroke-linecap="round" stroke-linejoin="round"/><path class="ductus__pen" d="M104 119 L93 146 L87 175 L85 205 L85 235 L86 265 L88 295 L93 324 L103 353 L115 380 L130 405 L148 429 L169 450 L192 470 L216 486 L243 500 L270 511 L299 519 L328 524 L358 526" fill="none" stroke="#3b5bdb" stroke-width="26" stroke-linecap="round" stroke-linejoin="round"/><circle class="ductus__tip" cx="358" cy="526" r="34" fill="#3b5bdb"/></g><text class="ductus__caption" x="369" y="405.1" text-anchor="middle" font-size="64.1" fill="#6b7280"><tspan x="369" y="405.1">2. climb the left side</tspan><tspan x="369" y="483.3">to the top</tspan></text></svg><rect x="336" y="648.76" width="150" height="214.07" rx="6" fill="#fdfdfc" stroke="#dbe1ea" stroke-width="1"/><svg x="336" y="648.76" width="150" height="214.07" viewBox="-31 -636 800 1141.7" preserveAspectRatio="xMidYMid meet" overflow="hidden"><g transform="scale(1,-1)"><path class="ductus__glyph" d="M374 566Q457 566 518.5 541Q580 516 620 469Q660 422 679.5 355Q699 288 699 205Q699 114 676.5 39Q654 -36 607.5 -89.5Q561 -143 489.5 -172Q418 -201 321 -201Q291 -201 260 -199Q229 -197 199 -191L208 -119Q231 -123 259.5 -125.5Q288 -128 319 -128Q403 -128 459 -101.5Q515 -75 548 -28.5Q581 18 595.5 78.5Q610 139 610 207Q610 347 548 420.5Q486 494 370 494Q298 494 241.5 459.5Q185 425 152.5 367Q120 309 120 237L120 225Q120 171 135 133.5Q150 96 177 77Q204 58 239 58Q265 58 284 70Q303 82 314 104.5Q325 127 325 158Q325 206 298.5 232Q272 258 231 258Q197 258 166 242.5Q135 227 109 201L77 248Q107 284 151.5 306Q196 328 245 328Q294 328 330.5 309Q367 290 387.5 253.5Q408 217 408 165Q408 110 387 70Q366 30 327.5 9Q289 -12 237 -12Q185 -12 139.5 14Q94 40 66.5 94.5Q39 149 39 232Q39 336 83.5 410.5Q128 485 204 525.5Q280 566 374 566Z" fill="#e0ddd6" fill-rule="nonzero"/><path class="ductus__done" d="M101 289 L120 279 L147 279 L177 283 L206 288 L235 291 L265 289 L292 280 L317 266 L337 245 L352 220 L361 192 L364 163 L361 134 L352 106 L339 80 L321 58 L297 41 L270 31 L241 28 L212 30 L184 38 L158 51 L135 70 L117 93 L104 119 L93 146 L87 175 L85 205 L85 235 L86 265 L88 295 L93 324 L103 353 L115 380 L130 405 L148 429 L169 450 L192 470 L216 486 L243 500 L270 511 L299 519 L328 524 L358 526 L358 526" fill="none" stroke="#9aa1ad" stroke-width="26" stroke-linecap="round" stroke-linejoin="round"/><path class="ductus__pen" d="M358 526 L388 526 L418 525 L448 521 L476 513 L504 502 L530 488 L554 470 L575 450 L594 428 L610 403 L623 376 L633 348 L642 319 L648 290 L653 260 L655 230 L656 200 L655 170 L652 141 L647 111 L641 82 L633 53 L623 25 L611 -2 L597 -28 L580 -53 L561 -75 L539 -95 L514 -112 L489 -127 L462 -139 L433 -148 L404 -154 L374 -158 L344 -160 L314 -160 L284 -160 L256 -159 L231 -151 L209 -136" fill="none" stroke="#3b5bdb" stroke-width="26" stroke-linecap="round" stroke-linejoin="round"/><circle class="ductus__tip" cx="209" cy="-136" r="34" fill="#3b5bdb"/></g><text class="ductus__caption" x="369" y="405.1" text-anchor="middle" font-size="64.1" fill="#6b7280"><tspan x="369" y="405.1">3. sweep down the right</tspan><tspan x="369" y="483.3">and curl left below</tspan></text></svg><text x="16" y="875.83" font-family="Latin Modern Sans, sans-serif" font-size="10" fill="#64748b">Part 1: stroke order after Rodney F. Moag, Malayalam: A University Course and Reference Grammar (University of Texas at Austin South Asia Institute and COERLL, updated April 2018; CC</text><text x="16" y="888.33" font-family="Latin Modern Sans, sans-serif" font-size="10" fill="#64748b">BY-NC-SA 4.0), Table II &apos;How to Write Word-Initial Vowel Symbols&apos;, p. xviii: movements 1-7 for ഏ, written by hand by Thomas Joseph</text><text x="16" y="900.83" font-family="Latin Modern Sans, sans-serif" font-size="10" fill="#64748b">Part 2: stroke order after Sriveenkat, Ml ഴ order.gif, Malayalam letter LLLA stroke-order animation, 00:03.0–00:07.4 (Wikimedia Commons, 1 July 2023)</text><text x="16" y="913.33" font-family="Latin Modern Sans, sans-serif" font-size="10" fill="#64748b">Part 3: stroke order after Sachin Nandakumar, Jayasree: Malayalam handwriting, animated stroke by stroke (github.com/sachn1/jayasree, commit e0c9d57, October 2026),</text><text x="16" y="925.83" font-family="Latin Modern Sans, sans-serif" font-size="10" fill="#64748b">js/src/stroke-data.raw.json: the hand-recorded centre-line stroke for ്, drawn alone; &quot;Jayasree&quot; by Sachin Nandakumar, CC BY 4.0</text><text x="16" y="938.33" font-family="Latin Modern Sans, sans-serif" font-size="10" fill="#64748b">Part 4: stroke order after Sachin Nandakumar, Jayasree: Malayalam handwriting, animated stroke by stroke (github.com/sachn1/jayasree, commit e0c9d57, October 2026),</text><text x="16" y="950.83" font-family="Latin Modern Sans, sans-serif" font-size="10" fill="#64748b">js/src/stroke-data.raw.json: the hand-recorded centre-line stroke for ൭; &quot;Jayasree&quot; by Sachin Nandakumar, CC BY 4.0</text><text x="16" y="963.33" font-family="Latin Modern Sans, sans-serif" font-size="10" fill="#64748b">This order is attested, not standardised; the source records where it varies.</text></svg>
