<svg xmlns="http://www.w3.org/2000/svg" width="342" height="389.42" viewBox="0 0 342 389.42" role="img" aria-label="How to write ى: one unbroken stroke · 2 movements"><title>Writing ى</title><desc>2 frames; frame N shows movements 1 to N of ى (arabic), the movement being added drawn in ink over the finished letter, whose outline is read from _fonts/NotoNaskhArabic-Static.ttf. Stroke order after Arabic Language Learning Notes (アラビア語学習メモ), Learn How to Write Arabic Letters — Basic Naskh: Alif Maqsura ى, isolated form and stroke order (updated 2025-01-29; accessed 2026-08-23) &lt;https://alarabiyah.sakura.ne.jp/arabic/alphabets/naskh/alifmaqsuurah/&gt;. Source note on variation: The lesson identifies ى as a word-final-only character outside the 28- or 29-row alphabet table, with isolated ى and connected final ـى shapes. Its isolated path starts above the baseline, draws the upper half of an S above it, continues without lifting through a large flat lower half below it, and finishes near the baseline. The lesson explains that the form is historically the old dotless final Yaa shape but represents long ā (or -an in specified spellings), and explicitly distinguishes true alif maqsura from the dotless Yaa carrier in ئ and from regional dotless final Yaa spellings. This learner path therefore reuses only the verified ي body geometry, never its dots, while retaining its own identity and provenance.</desc><rect x="0" y="0" width="342" height="389.42" fill="#ffffff"/><text x="16" y="31" font-family="Latin Modern Sans, sans-serif" font-size="15" fill="#172033">How it is written — one unbroken stroke · 2 movements</text><rect x="16" y="42" width="150" height="245.92" rx="6" fill="#fdfdfc" stroke="#dbe1ea" stroke-width="1"/><svg x="16" y="42" width="150" height="245.92" viewBox="-2 -410 656 1075.5" preserveAspectRatio="xMidYMid meet" overflow="hidden"><g transform="scale(1,-1)"><path class="ductus__glyph" d="M249 -262Q164 -262 116 -213Q68 -164 68 -74Q68 -54 69.5 -37Q71 -20 75 1.5Q79 23 87 56L124 47Q113 1 113 -24Q113 -97 149.5 -138Q186 -179 251 -179Q287 -179 329 -170.5Q371 -162 412 -146.5Q453 -131 484 -111Q508 -96 524 -80Q540 -64 547 -48Q534 -46 521.5 -44Q509 -42 495 -41Q419 -35 382 -22.5Q345 -10 325 18Q306 46 306 91Q306 122 320.5 159Q335 196 361 232.5Q387 269 419 297Q468 340 507 340Q541 340 558 317Q575 294 584 253L548 243Q541 253 534.5 255.5Q528 258 516 258Q499 258 474.5 245.5Q450 233 425.5 211.5Q401 190 380 164Q349 122 342 87Q356 74 384 64.5Q412 55 452 49Q488 44 513 37.5Q538 31 553 21Q570 9 576.5 -7.5Q583 -24 583 -47Q583 -77 557.5 -111Q532 -145 489.5 -176Q447 -207 394 -229Q316 -262 249 -262Z" fill="#e0ddd6" fill-rule="nonzero"/><path class="ductus__done" d="M548 285 L548 285" fill="none" stroke="#9aa1ad" stroke-width="26" stroke-linecap="round" stroke-linejoin="round"/><path class="ductus__pen" d="M548 285 L510 288 L472 270 L430 238 L395 205 L365 168 L345 125 L330 82 L340 45 L375 25 L420 8 L470 -2 L520 -24 L555 -55" fill="none" stroke="#3b5bdb" stroke-width="26" stroke-linecap="round" stroke-linejoin="round"/><circle class="ductus__tip" cx="555" cy="-55" r="34" fill="#3b5bdb"/></g><text class="ductus__caption" x="326" y="454.6" text-anchor="middle" font-size="52.6" fill="#6b7280"><tspan x="326" y="454.6">1. curve from above the</tspan><tspan x="326" y="518.8">baseline through the</tspan><tspan x="326" y="582.9">upper half of the S</tspan></text></svg><rect x="176" y="42" width="150" height="245.92" rx="6" fill="#fdfdfc" stroke="#dbe1ea" stroke-width="1"/><svg x="176" y="42" width="150" height="245.92" viewBox="-2 -410 656 1075.5" preserveAspectRatio="xMidYMid meet" overflow="hidden"><g transform="scale(1,-1)"><path class="ductus__glyph" d="M249 -262Q164 -262 116 -213Q68 -164 68 -74Q68 -54 69.5 -37Q71 -20 75 1.5Q79 23 87 56L124 47Q113 1 113 -24Q113 -97 149.5 -138Q186 -179 251 -179Q287 -179 329 -170.5Q371 -162 412 -146.5Q453 -131 484 -111Q508 -96 524 -80Q540 -64 547 -48Q534 -46 521.5 -44Q509 -42 495 -41Q419 -35 382 -22.5Q345 -10 325 18Q306 46 306 91Q306 122 320.5 159Q335 196 361 232.5Q387 269 419 297Q468 340 507 340Q541 340 558 317Q575 294 584 253L548 243Q541 253 534.5 255.5Q528 258 516 258Q499 258 474.5 245.5Q450 233 425.5 211.5Q401 190 380 164Q349 122 342 87Q356 74 384 64.5Q412 55 452 49Q488 44 513 37.5Q538 31 553 21Q570 9 576.5 -7.5Q583 -24 583 -47Q583 -77 557.5 -111Q532 -145 489.5 -176Q447 -207 394 -229Q316 -262 249 -262Z" fill="#e0ddd6" fill-rule="nonzero"/><path class="ductus__done" d="M548 285 L510 288 L472 270 L430 238 L395 205 L365 168 L345 125 L330 82 L340 45 L375 25 L420 8 L470 -2 L520 -24 L555 -55 L555 -55" fill="none" stroke="#9aa1ad" stroke-width="26" stroke-linecap="round" stroke-linejoin="round"/><path class="ductus__pen" d="M555 -55 L535 -98 L495 -145 L445 -188 L390 -218 L325 -238 L255 -238 L190 -218 L140 -180 L105 -130 L90 -78 L94 -25 L105 28" fill="none" stroke="#3b5bdb" stroke-width="26" stroke-linecap="round" stroke-linejoin="round"/><circle class="ductus__tip" cx="105" cy="28" r="34" fill="#3b5bdb"/></g><text class="ductus__caption" x="326" y="454.6" text-anchor="middle" font-size="52.6" fill="#6b7280"><tspan x="326" y="454.6">2. continue through the</tspan><tspan x="326" y="518.8">wide flat lower curve</tspan><tspan x="326" y="582.9">and finish near the</tspan><tspan x="326" y="647.1">baseline</tspan></text></svg><text x="16" y="300.92" font-family="Latin Modern Sans, sans-serif" font-size="10" fill="#64748b">Stroke order after Arabic Language Learning Notes</text><text x="16" y="313.42" font-family="Latin Modern Sans, sans-serif" font-size="10" fill="#64748b">(アラビア語学習メモ), Learn How to Write Arabic Letters — Basic</text><text x="16" y="325.92" font-family="Latin Modern Sans, sans-serif" font-size="10" fill="#64748b">Naskh: Alif Maqsura ى, isolated form and stroke order</text><text x="16" y="338.42" font-family="Latin Modern Sans, sans-serif" font-size="10" fill="#64748b">(updated 2025-01-29; accessed 2026-08-23)</text><text x="16" y="350.92" font-family="Latin Modern Sans, sans-serif" font-size="10" fill="#64748b">This order is attested, not standardised; the source</text><text x="16" y="363.42" font-family="Latin Modern Sans, sans-serif" font-size="10" fill="#64748b">records where it varies.</text></svg>
