<svg xmlns="http://www.w3.org/2000/svg" width="1014" height="456.19" viewBox="0 0 1014 456.19" role="img" aria-label="How to write ۷ ۸ ۹: 3 letters, ۷, ۸, ۹, one after another"><title>Writing ۷ ۸ ۹</title><desc>3 letters written one after another: ۷, ۸, ۹ (perso-arabic). Each letter has its own group of frames; frame N of a group shows movements 1 to N of that letter, the movement being added drawn in ink over the finished letter, whose outline is read from _fonts/NotoNaskhArabic-Static.ttf. Each letter is drawn at its own scale from its own cited stroke order, so the strip does not show how large the letters are next to each other, how far apart they sit, or any join between them. Stroke order: ۷: POH-Db, Persian Online Handwriting Database (SLT Lab, Amirkabir University of Technology; github.com/SLTLabAUT/POH-Db at commit 018b039, Writepads/NumberGroup; AGPL-3.0, facts only): 487 aligned samples of ۷ from 30 native writers; one stroke in 487 (100%); starts at the top left in 360 (74%) &lt;https://github.com/SLTLabAUT/POH-Db/tree/018b039c0f80d84da16fc9c0f7f629c746a5b3c8/Writepads/NumberGroup&gt;; ۸: POH-Db, Persian Online Handwriting Database (SLT Lab, Amirkabir University of Technology; github.com/SLTLabAUT/POH-Db at commit 018b039, Writepads/NumberGroup; AGPL-3.0, facts only): 479 aligned samples of ۸ from 29 native writers; one stroke in 479 (100%); starts at the bottom left in 373 (78%) &lt;https://github.com/SLTLabAUT/POH-Db/tree/018b039c0f80d84da16fc9c0f7f629c746a5b3c8/Writepads/NumberGroup&gt;; ۹: POH-Db, Persian Online Handwriting Database (SLT Lab, Amirkabir University of Technology; github.com/SLTLabAUT/POH-Db at commit 018b039, Writepads/NumberGroup; AGPL-3.0, facts only): 452 aligned samples of ۹ from 30 native writers; one stroke in 452 (100%); starts in the right half in 379 (84%) &lt;https://github.com/SLTLabAUT/POH-Db/tree/018b039c0f80d84da16fc9c0f7f629c746a5b3c8/Writepads/NumberGroup&gt;. Source notes on variation: ۷: Counted for this record from POH-Db&apos;s NumberGroup writepads: lines of Persian numbers that native writers wrote on FarsiHandwriting.ir with a pen, a finger or a stylus (112 writepads by 30 writers; the mouse writepads were left out), recorded as InkML, where each trace is one pen-down stroke. Each line was split into characters by horizontal overlap; of the 1,046 lines whose character count matched their label, the 1,005 whose characters ran left to right were used (which also shows that the numbers are written left to right). Zones are thirds of each character&apos;s box, and the split is heuristic, so the shares are approximate. Of 487 samples of ۷, 487 (100%) are one stroke. 360 (74%) start at the top left (and 91, 19%, at the middle left); the lowest point comes in the middle of the stroke in 482 (99%), and 451 (93%) end at the top right: down to the point, then up. POH-Db is licensed AGPL-3.0, so only these counts and shares are taken; no coordinate or trace is copied, and the pen path is fitted to the bundled Noto Naskh Arabic outline rather than to any sample. Handwriting varies by writer. ۸: Counted for this record from POH-Db&apos;s NumberGroup writepads: lines of Persian numbers that native writers wrote on FarsiHandwriting.ir with a pen, a finger or a stylus (112 writepads by 30 writers; the mouse writepads were left out), recorded as InkML, where each trace is one pen-down stroke. Each line was split into characters by horizontal overlap; of the 1,046 lines whose character count matched their label, the 1,005 whose characters ran left to right were used (which also shows that the numbers are written left to right). Zones are thirds of each character&apos;s box, and the split is heuristic, so the shares are approximate. Of 479 samples of ۸, 479 (100%) are one stroke. 373 (78%) start at the bottom left and 324 (68%) first move up; the highest point comes in the middle of the stroke in 463 (97%), and 453 (95%) end at the bottom right: up to the peak, then down. POH-Db is licensed AGPL-3.0, so only these counts and shares are taken; no coordinate or trace is copied, and the pen path is fitted to the bundled Noto Naskh Arabic outline rather than to any sample. Handwriting varies by writer. ۹: Counted for this record from POH-Db&apos;s NumberGroup writepads: lines of Persian numbers that native writers wrote on FarsiHandwriting.ir with a pen, a finger or a stylus (112 writepads by 30 writers; the mouse writepads were left out), recorded as InkML, where each trace is one pen-down stroke. Each line was split into characters by horizontal overlap; of the 1,046 lines whose character count matched their label, the 1,005 whose characters ran left to right were used (which also shows that the numbers are written left to right). Zones are thirds of each character&apos;s box, and the split is heuristic, so the shares are approximate. Of 452 samples of ۹, 452 (100%) are one stroke. 379 (84%) start in the right half, most often at the middle right (151, 33%), and 334 (74%) first move left. 449 (99%) reach the top left after leaving the start, so the loop comes first, and 439 (97%) end at the bottom right: the stem comes last, downward. The loop turns clockwise in 277 (61%). POH-Db is licensed AGPL-3.0, so only these counts and shares are taken; no coordinate or trace is copied, and the pen path is fitted to the bundled Noto Naskh Arabic outline rather than to any sample. Handwriting varies by writer.</desc><rect x="0" y="0" width="1014" height="456.19" fill="#ffffff"/><text x="16" y="31" font-family="Latin Modern Sans, sans-serif" font-size="15" fill="#172033">How it is written — 3 letters, one after another</text><text x="16" y="54" font-family="Latin Modern Sans, sans-serif" font-size="12" fill="#172033">Letter 1 of 3 — one unbroken stroke · 2 movements</text><rect x="16" y="61" width="150" height="239.49" rx="6" fill="#fdfdfc" stroke="#dbe1ea" stroke-width="1"/><svg x="16" y="61" width="150" height="239.49" viewBox="-61 -636 558 890.9" preserveAspectRatio="xMidYMid meet" overflow="hidden"><g transform="scale(1,-1)"><path class="ductus__glyph" d="M204 0Q183 70 166 123Q149 176 132.5 219Q116 262 99 300.5Q82 339 61.5 379.5Q41 420 15 468Q9 479 9 490Q9 509 22.5 529.5Q36 550 58 566Q81 531 107 475Q133 419 158 353.5Q183 288 203 223.5Q223 159 233 108Q244 168 261 232.5Q278 297 299 359.5Q320 422 342 475.5Q364 529 385 566L427 494Q386 411 355.5 337.5Q325 264 302 192Q279 120 258 40Q242 27 228.5 17.5Q215 8 204 0Z" fill="#e0ddd6" fill-rule="nonzero"/><path class="ductus__done" d="M45 515 L45 515" fill="none" stroke="#9aa1ad" stroke-width="26" stroke-linecap="round" stroke-linejoin="round"/><path class="ductus__pen" d="M45 515 L56 491 L70 460 L83 430 L96 400 L107 374 L118 350 L128 325 L137 300 L147 275 L157 250 L166 225 L175 200 L183 175 L190 150 L197 125 L203 100 L208 76 L212 55 L218 22" fill="none" stroke="#3b5bdb" stroke-width="26" stroke-linecap="round" stroke-linejoin="round"/><circle class="ductus__tip" cx="218" cy="22" r="34" fill="#3b5bdb"/></g><text class="ductus__caption" x="218" y="184.7" text-anchor="middle" font-size="44.7" fill="#6b7280"><tspan x="218" y="184.7">1. slant down from the</tspan><tspan x="218" y="239.2">top left</tspan></text></svg><rect x="176" y="61" width="150" height="239.49" rx="6" fill="#fdfdfc" stroke="#dbe1ea" stroke-width="1"/><svg x="176" y="61" width="150" height="239.49" viewBox="-61 -636 558 890.9" preserveAspectRatio="xMidYMid meet" overflow="hidden"><g transform="scale(1,-1)"><path class="ductus__glyph" d="M204 0Q183 70 166 123Q149 176 132.5 219Q116 262 99 300.5Q82 339 61.5 379.5Q41 420 15 468Q9 479 9 490Q9 509 22.5 529.5Q36 550 58 566Q81 531 107 475Q133 419 158 353.5Q183 288 203 223.5Q223 159 233 108Q244 168 261 232.5Q278 297 299 359.5Q320 422 342 475.5Q364 529 385 566L427 494Q386 411 355.5 337.5Q325 264 302 192Q279 120 258 40Q242 27 228.5 17.5Q215 8 204 0Z" fill="#e0ddd6" fill-rule="nonzero"/><path class="ductus__done" d="M45 515 L56 491 L70 460 L83 430 L96 400 L107 374 L118 350 L128 325 L137 300 L147 275 L157 250 L166 225 L175 200 L183 175 L190 150 L197 125 L203 100 L208 76 L212 55 L218 22 L218 22" fill="none" stroke="#9aa1ad" stroke-width="26" stroke-linecap="round" stroke-linejoin="round"/><path class="ductus__pen" d="M218 22 L238 60 L252 100 L259 124 L266 150 L272 175 L278 200 L286 225 L294 250 L302 275 L310 300 L319 325 L328 350 L337 375 L347 400 L358 425 L369 450 L380 476 L390 500 L400 535" fill="none" stroke="#3b5bdb" stroke-width="26" stroke-linecap="round" stroke-linejoin="round"/><circle class="ductus__tip" cx="400" cy="535" r="34" fill="#3b5bdb"/></g><text class="ductus__caption" x="218" y="184.7" text-anchor="middle" font-size="44.7" fill="#6b7280"><tspan x="218" y="184.7">2. turn and go up to the</tspan><tspan x="218" y="239.2">top right</tspan></text></svg><text x="352" y="54" font-family="Latin Modern Sans, sans-serif" font-size="12" fill="#172033">Letter 2 of 3 — one unbroken stroke · 2 movements</text><rect x="352" y="61" width="150" height="239.11" rx="6" fill="#fdfdfc" stroke="#dbe1ea" stroke-width="1"/><svg x="352" y="61" width="150" height="239.11" viewBox="-62 -636 559 891.1" preserveAspectRatio="xMidYMid meet" overflow="hidden"><g transform="scale(1,-1)"><path class="ductus__glyph" d="M51 0L8 71Q41 136 65.5 191.5Q90 247 109.5 300Q129 353 145.5 408Q162 463 178 526L232 566Q251 500 268 448Q285 396 301.5 352.5Q318 309 335.5 269.5Q353 230 374 188.5Q395 147 422 98Q427 86 427 76Q427 57 414 37Q401 17 378 0Q357 32 332.5 82.5Q308 133 285 192.5Q262 252 242 312Q229 352 219 389.5Q209 427 203 458Q192 396 175 332Q158 268 137.5 207Q117 146 95 93Q73 40 51 0Z" fill="#e0ddd6" fill-rule="nonzero"/><path class="ductus__done" d="M38 38 L38 38" fill="none" stroke="#9aa1ad" stroke-width="26" stroke-linecap="round" stroke-linejoin="round"/><path class="ductus__pen" d="M38 38 L48 66 L60 100 L71 126 L82 150 L92 175 L102 200 L112 225 L121 250 L130 275 L139 300 L147 325 L154 350 L161 375 L168 400 L175 426 L182 450 L195 490 L205 520" fill="none" stroke="#3b5bdb" stroke-width="26" stroke-linecap="round" stroke-linejoin="round"/><circle class="ductus__tip" cx="205" cy="520" r="34" fill="#3b5bdb"/></g><text class="ductus__caption" x="217.5" y="184.8" text-anchor="middle" font-size="44.8" fill="#6b7280"><tspan x="217.5" y="184.8">1. go up from the</tspan><tspan x="217.5" y="239.5">bottom left</tspan></text></svg><rect x="512" y="61" width="150" height="239.11" rx="6" fill="#fdfdfc" stroke="#dbe1ea" stroke-width="1"/><svg x="512" y="61" width="150" height="239.11" viewBox="-62 -636 559 891.1" preserveAspectRatio="xMidYMid meet" overflow="hidden"><g transform="scale(1,-1)"><path class="ductus__glyph" d="M51 0L8 71Q41 136 65.5 191.5Q90 247 109.5 300Q129 353 145.5 408Q162 463 178 526L232 566Q251 500 268 448Q285 396 301.5 352.5Q318 309 335.5 269.5Q353 230 374 188.5Q395 147 422 98Q427 86 427 76Q427 57 414 37Q401 17 378 0Q357 32 332.5 82.5Q308 133 285 192.5Q262 252 242 312Q229 352 219 389.5Q209 427 203 458Q192 396 175 332Q158 268 137.5 207Q117 146 95 93Q73 40 51 0Z" fill="#e0ddd6" fill-rule="nonzero"/><path class="ductus__done" d="M38 38 L48 66 L60 100 L71 126 L82 150 L92 175 L102 200 L112 225 L121 250 L130 275 L139 300 L147 325 L154 350 L161 375 L168 400 L175 426 L182 450 L195 490 L205 520 L205 520" fill="none" stroke="#9aa1ad" stroke-width="26" stroke-linecap="round" stroke-linejoin="round"/><path class="ductus__pen" d="M205 520 L213 497 L225 465 L238 432 L250 400 L258 374 L266 350 L275 325 L284 300 L293 275 L303 250 L314 225 L325 200 L336 175 L348 150 L361 125 L372 100 L379 76 L384 55 L390 28" fill="none" stroke="#3b5bdb" stroke-width="26" stroke-linecap="round" stroke-linejoin="round"/><circle class="ductus__tip" cx="390" cy="28" r="34" fill="#3b5bdb"/></g><text class="ductus__caption" x="217.5" y="184.8" text-anchor="middle" font-size="44.8" fill="#6b7280"><tspan x="217.5" y="184.8">2. turn and come down</tspan><tspan x="217.5" y="239.5">to the right</tspan></text></svg><text x="688" y="54" font-family="Latin Modern Sans, sans-serif" font-size="12" fill="#172033">Letter 3 of 3 — one unbroken stroke · 2 movements</text><rect x="688" y="61" width="150" height="281.19" rx="6" fill="#fdfdfc" stroke="#dbe1ea" stroke-width="1"/><svg x="688" y="61" width="150" height="281.19" viewBox="-3 -655 477 894.2" preserveAspectRatio="xMidYMid meet" overflow="hidden"><g transform="scale(1,-1)"><path class="ductus__glyph" d="M345 -1Q321 62 306.5 111Q292 160 284.5 204Q277 248 275 294Q236 280 202 280Q144 280 105.5 318.5Q67 357 67 417Q67 454 88.5 495Q110 536 142 561Q174 585 208 585Q265 585 295 535Q325 485 325 375Q325 322 333.5 270.5Q342 219 359.5 167.5Q377 116 404 62L345 -1ZM230 364Q239 364 249.5 365.5Q260 367 272 369L273 370Q267 434 244.5 466Q222 498 183 498Q166 498 149 488Q132 478 121 462.5Q110 447 110 430Q110 402 143.5 383Q177 364 230 364Z" fill="#e0ddd6" fill-rule="nonzero"/><path class="ductus__done" d="M295 330 L295 330" fill="none" stroke="#9aa1ad" stroke-width="26" stroke-linecap="round" stroke-linejoin="round"/><path class="ductus__pen" d="M295 330 L276 324 L250 318 L225 317 L200 318 L175 321 L150 328 L127 340 L108 358 L95 383 L88 410 L88 435 L95 460 L108 486 L125 510 L146 528 L170 540 L195 546 L220 545 L244 536 L265 520 L281 499 L292 475 L298 448 L300 420 L301 387 L300 360" fill="none" stroke="#3b5bdb" stroke-width="26" stroke-linecap="round" stroke-linejoin="round"/><circle class="ductus__tip" cx="300" cy="360" r="34" fill="#3b5bdb"/></g><text class="ductus__caption" x="235.5" y="179.2" text-anchor="middle" font-size="38.2" fill="#6b7280"><tspan x="235.5" y="179.2">1. loop left, up and</tspan><tspan x="235.5" y="225.8">over the top</tspan></text></svg><rect x="848" y="61" width="150" height="281.19" rx="6" fill="#fdfdfc" stroke="#dbe1ea" stroke-width="1"/><svg x="848" y="61" width="150" height="281.19" viewBox="-3 -655 477 894.2" preserveAspectRatio="xMidYMid meet" overflow="hidden"><g transform="scale(1,-1)"><path class="ductus__glyph" d="M345 -1Q321 62 306.5 111Q292 160 284.5 204Q277 248 275 294Q236 280 202 280Q144 280 105.5 318.5Q67 357 67 417Q67 454 88.5 495Q110 536 142 561Q174 585 208 585Q265 585 295 535Q325 485 325 375Q325 322 333.5 270.5Q342 219 359.5 167.5Q377 116 404 62L345 -1ZM230 364Q239 364 249.5 365.5Q260 367 272 369L273 370Q267 434 244.5 466Q222 498 183 498Q166 498 149 488Q132 478 121 462.5Q110 447 110 430Q110 402 143.5 383Q177 364 230 364Z" fill="#e0ddd6" fill-rule="nonzero"/><path class="ductus__done" d="M295 330 L276 324 L250 318 L225 317 L200 318 L175 321 L150 328 L127 340 L108 358 L95 383 L88 410 L88 435 L95 460 L108 486 L125 510 L146 528 L170 540 L195 546 L220 545 L244 536 L265 520 L281 499 L292 475 L298 448 L300 420 L301 387 L300 360 L300 360" fill="none" stroke="#9aa1ad" stroke-width="26" stroke-linecap="round" stroke-linejoin="round"/><path class="ductus__pen" d="M300 360 L300 333 L301 300 L304 274 L308 250 L312 225 L316 200 L323 175 L331 150 L339 124 L347 100 L362 60 L368 38" fill="none" stroke="#3b5bdb" stroke-width="26" stroke-linecap="round" stroke-linejoin="round"/><circle class="ductus__tip" cx="368" cy="38" r="34" fill="#3b5bdb"/></g><text class="ductus__caption" x="235.5" y="179.2" text-anchor="middle" font-size="38.2" fill="#6b7280"><tspan x="235.5" y="179.2">2. draw the stem down to</tspan><tspan x="235.5" y="225.8">the right</tspan></text></svg><text x="16" y="355.19" font-family="Latin Modern Sans, sans-serif" font-size="10" fill="#64748b">Letter 1: stroke order after POH-Db, Persian Online Handwriting Database (SLT Lab, Amirkabir University of Technology; github.com/SLTLabAUT/POH-Db at commit 018b039, Writepads/NumberGroup;</text><text x="16" y="367.69" font-family="Latin Modern Sans, sans-serif" font-size="10" fill="#64748b">AGPL-3.0, facts only): 487 aligned samples of ۷ from 30 native writers; one stroke in 487 (100%); starts at the top left in 360 (74%)</text><text x="16" y="380.19" font-family="Latin Modern Sans, sans-serif" font-size="10" fill="#64748b">Letter 2: stroke order after POH-Db, Persian Online Handwriting Database (SLT Lab, Amirkabir University of Technology; github.com/SLTLabAUT/POH-Db at commit 018b039, Writepads/NumberGroup;</text><text x="16" y="392.69" font-family="Latin Modern Sans, sans-serif" font-size="10" fill="#64748b">AGPL-3.0, facts only): 479 aligned samples of ۸ from 29 native writers; one stroke in 479 (100%); starts at the bottom left in 373 (78%)</text><text x="16" y="405.19" font-family="Latin Modern Sans, sans-serif" font-size="10" fill="#64748b">Letter 3: stroke order after POH-Db, Persian Online Handwriting Database (SLT Lab, Amirkabir University of Technology; github.com/SLTLabAUT/POH-Db at commit 018b039, Writepads/NumberGroup;</text><text x="16" y="417.69" font-family="Latin Modern Sans, sans-serif" font-size="10" fill="#64748b">AGPL-3.0, facts only): 452 aligned samples of ۹ from 30 native writers; one stroke in 452 (100%); starts in the right half in 379 (84%)</text><text x="16" y="430.19" font-family="Latin Modern Sans, sans-serif" font-size="10" fill="#64748b">This order is attested, not standardised; the source records where it varies.</text></svg>
