<svg xmlns="http://www.w3.org/2000/svg" width="822" height="254.16" viewBox="0 0 822 254.16" role="img" aria-label="How to write ఝ: 5 strokes · 4 pen lifts · 5 movements"><title>Writing ఝ</title><desc>5 frames; frame N shows movements 1 to N of ఝ (telugu), the movement being added drawn in ink over the finished letter, whose outline is read from _fonts/NotoSansTelugu-Static.ttf. Stroke order after Sathish Shanmugam, Write Telugu Alphabets, consonant ఝ packaged tracing guide res/drawable/dot_stroke_c_2_4_jha.png, movements 1–5 (version 2.6) &lt;https://play.google.com/store/apps/details?id=com.sathishshanmugam.writetelugualphabets&gt;. Source note on variation: The packaged tracing guide numbers the three rounded bowls, upper flourish, and downward stem as five disconnected directional movements. Each remains a separate pen-down run in this fit to the bundled Noto Sans Telugu outline. Telugu letter direction is not uniform across the script, so this records one attested pedagogical order.</desc><rect x="0" y="0" width="822" height="254.16" fill="#ffffff"/><text x="16" y="31" font-family="Latin Modern Sans, sans-serif" font-size="15" fill="#172033">How it is written — 5 strokes · 4 pen lifts · 5 movements</text><rect x="16" y="42" width="150" height="148.16" rx="6" fill="#fdfdfc" stroke="#dbe1ea" stroke-width="1"/><svg x="16" y="42" width="150" height="148.16" viewBox="-35 -795 1356 1339.4" preserveAspectRatio="xMidYMid meet" overflow="hidden"><g transform="scale(1,-1)"><path class="ductus__glyph" d="M35 236Q35 314 68 373.5Q101 433 159.5 466.5Q218 500 296 500Q375 500 433.5 467.5Q492 435 525 376Q558 317 558 237Q558 163 526 106.5Q494 50 435 19Q376 -12 296 -12Q217 -12 158.5 19Q100 50 67.5 105.5Q35 161 35 236ZM118 248Q118 167 163 117Q208 67 296 67Q356 67 395.5 89.5Q435 112 455 152Q475 192 475 242Q475 293 455.5 334.5Q436 376 396.5 400.5Q357 425 296 425Q235 425 195.5 400.5Q156 376 137 336Q118 296 118 248ZM709 -12Q642 -12 591.5 22Q541 56 502 111L542 176Q570 139 597.5 115Q625 91 654.5 79Q684 67 716 67Q767 67 794 99.5Q821 132 821 193Q821 251 797.5 294.5Q774 338 734.5 369.5Q695 401 645 423L682 500Q744 474 794 430Q844 386 874 328Q904 270 904 199Q904 100 854 44Q804 -12 709 -12ZM837 -125L844 16L919 16L927 -125L837 -125ZM1056 -12Q989 -12 938.5 22Q888 56 849 111L889 176Q917 139 944.5 115Q972 91 1001.5 79Q1031 67 1063 67Q1114 67 1141 99.5Q1168 132 1168 193Q1168 251 1144.5 294.5Q1121 338 1081.5 369.5Q1042 401 992 423L1029 500Q1091 474 1141 430Q1191 386 1221 328Q1251 270 1251 199Q1251 100 1201 44Q1151 -12 1056 -12ZM265 425Q236 425 209.5 436Q183 447 161 477.5Q139 508 123 564L206 591Q221 536 235 518Q249 500 271 500Q291 500 308.5 512.5Q326 525 358 565L389 605Q423 649 451.5 675Q480 701 512 713Q544 725 588 725L594 648Q559 646 535.5 637Q512 628 492.5 608.5Q473 589 447 556L424 526Q396 490 371 468Q346 446 320.5 435.5Q295 425 265 425Z" fill="#e0ddd6" fill-rule="nonzero"/><path class="ductus__done" d="M505 245 L505 245" fill="none" stroke="#9aa1ad" stroke-width="26" stroke-linecap="round" stroke-linejoin="round"/><path class="ductus__pen" d="M505 245 L500 315 L470 375 L420 425 L355 455 L290 465 L220 455 L155 425 L105 375 L75 315 L70 245 L78 175 L110 115 L160 70 L225 42 L295 35 L365 48 L425 80 L470 130 L498 190 L505 245" fill="none" stroke="#3b5bdb" stroke-width="26" stroke-linecap="round" stroke-linejoin="round"/><circle class="ductus__tip" cx="505" cy="245" r="34" fill="#3b5bdb"/></g><text class="ductus__caption" x="643" y="373.7" text-anchor="middle" font-size="108.7" fill="#6b7280"><tspan x="643" y="373.7">1. circle around the</tspan><tspan x="643" y="506.3">broad left bowl</tspan></text></svg><rect x="176" y="42" width="150" height="148.16" rx="6" fill="#fdfdfc" stroke="#dbe1ea" stroke-width="1"/><svg x="176" y="42" width="150" height="148.16" viewBox="-35 -795 1356 1339.4" preserveAspectRatio="xMidYMid meet" overflow="hidden"><g transform="scale(1,-1)"><path class="ductus__glyph" d="M35 236Q35 314 68 373.5Q101 433 159.5 466.5Q218 500 296 500Q375 500 433.5 467.5Q492 435 525 376Q558 317 558 237Q558 163 526 106.5Q494 50 435 19Q376 -12 296 -12Q217 -12 158.5 19Q100 50 67.5 105.5Q35 161 35 236ZM118 248Q118 167 163 117Q208 67 296 67Q356 67 395.5 89.5Q435 112 455 152Q475 192 475 242Q475 293 455.5 334.5Q436 376 396.5 400.5Q357 425 296 425Q235 425 195.5 400.5Q156 376 137 336Q118 296 118 248ZM709 -12Q642 -12 591.5 22Q541 56 502 111L542 176Q570 139 597.5 115Q625 91 654.5 79Q684 67 716 67Q767 67 794 99.5Q821 132 821 193Q821 251 797.5 294.5Q774 338 734.5 369.5Q695 401 645 423L682 500Q744 474 794 430Q844 386 874 328Q904 270 904 199Q904 100 854 44Q804 -12 709 -12ZM837 -125L844 16L919 16L927 -125L837 -125ZM1056 -12Q989 -12 938.5 22Q888 56 849 111L889 176Q917 139 944.5 115Q972 91 1001.5 79Q1031 67 1063 67Q1114 67 1141 99.5Q1168 132 1168 193Q1168 251 1144.5 294.5Q1121 338 1081.5 369.5Q1042 401 992 423L1029 500Q1091 474 1141 430Q1191 386 1221 328Q1251 270 1251 199Q1251 100 1201 44Q1151 -12 1056 -12ZM265 425Q236 425 209.5 436Q183 447 161 477.5Q139 508 123 564L206 591Q221 536 235 518Q249 500 271 500Q291 500 308.5 512.5Q326 525 358 565L389 605Q423 649 451.5 675Q480 701 512 713Q544 725 588 725L594 648Q559 646 535.5 637Q512 628 492.5 608.5Q473 589 447 556L424 526Q396 490 371 468Q346 446 320.5 435.5Q295 425 265 425Z" fill="#e0ddd6" fill-rule="nonzero"/><path class="ductus__done" d="M505 245 L500 315 L470 375 L420 425 L355 455 L290 465 L220 455 L155 425 L105 375 L75 315 L70 245 L78 175 L110 115 L160 70 L225 42 L295 35 L365 48 L425 80 L470 130 L498 190 L505 245" fill="none" stroke="#9aa1ad" stroke-width="26" stroke-linecap="round" stroke-linejoin="round"/><path class="ductus__done" d="M750 403 L750 403" fill="none" stroke="#9aa1ad" stroke-width="26" stroke-linecap="round" stroke-linejoin="round"/><path class="ductus__pen" d="M750 403 L670 430 L590 403 L531 330 L510 230 L531 130 L590 57 L670 30 L750 57 L809 130 L830 230 L809 330 L750 403" fill="none" stroke="#3b5bdb" stroke-width="26" stroke-linecap="round" stroke-linejoin="round"/><circle class="ductus__tip" cx="750" cy="403" r="34" fill="#3b5bdb"/></g><text class="ductus__caption" x="643" y="373.7" text-anchor="middle" font-size="108.7" fill="#6b7280"><tspan x="643" y="373.7">2. restart and circle</tspan><tspan x="643" y="506.3">around the middle bowl</tspan></text></svg><rect x="336" y="42" width="150" height="148.16" rx="6" fill="#fdfdfc" stroke="#dbe1ea" stroke-width="1"/><svg x="336" y="42" width="150" height="148.16" viewBox="-35 -795 1356 1339.4" preserveAspectRatio="xMidYMid meet" overflow="hidden"><g transform="scale(1,-1)"><path class="ductus__glyph" d="M35 236Q35 314 68 373.5Q101 433 159.5 466.5Q218 500 296 500Q375 500 433.5 467.5Q492 435 525 376Q558 317 558 237Q558 163 526 106.5Q494 50 435 19Q376 -12 296 -12Q217 -12 158.5 19Q100 50 67.5 105.5Q35 161 35 236ZM118 248Q118 167 163 117Q208 67 296 67Q356 67 395.5 89.5Q435 112 455 152Q475 192 475 242Q475 293 455.5 334.5Q436 376 396.5 400.5Q357 425 296 425Q235 425 195.5 400.5Q156 376 137 336Q118 296 118 248ZM709 -12Q642 -12 591.5 22Q541 56 502 111L542 176Q570 139 597.5 115Q625 91 654.5 79Q684 67 716 67Q767 67 794 99.5Q821 132 821 193Q821 251 797.5 294.5Q774 338 734.5 369.5Q695 401 645 423L682 500Q744 474 794 430Q844 386 874 328Q904 270 904 199Q904 100 854 44Q804 -12 709 -12ZM837 -125L844 16L919 16L927 -125L837 -125ZM1056 -12Q989 -12 938.5 22Q888 56 849 111L889 176Q917 139 944.5 115Q972 91 1001.5 79Q1031 67 1063 67Q1114 67 1141 99.5Q1168 132 1168 193Q1168 251 1144.5 294.5Q1121 338 1081.5 369.5Q1042 401 992 423L1029 500Q1091 474 1141 430Q1191 386 1221 328Q1251 270 1251 199Q1251 100 1201 44Q1151 -12 1056 -12ZM265 425Q236 425 209.5 436Q183 447 161 477.5Q139 508 123 564L206 591Q221 536 235 518Q249 500 271 500Q291 500 308.5 512.5Q326 525 358 565L389 605Q423 649 451.5 675Q480 701 512 713Q544 725 588 725L594 648Q559 646 535.5 637Q512 628 492.5 608.5Q473 589 447 556L424 526Q396 490 371 468Q346 446 320.5 435.5Q295 425 265 425Z" fill="#e0ddd6" fill-rule="nonzero"/><path class="ductus__done" d="M505 245 L500 315 L470 375 L420 425 L355 455 L290 465 L220 455 L155 425 L105 375 L75 315 L70 245 L78 175 L110 115 L160 70 L225 42 L295 35 L365 48 L425 80 L470 130 L498 190 L505 245" fill="none" stroke="#9aa1ad" stroke-width="26" stroke-linecap="round" stroke-linejoin="round"/><path class="ductus__done" d="M750 403 L670 430 L590 403 L531 330 L510 230 L531 130 L590 57 L670 30 L750 57 L809 130 L830 230 L809 330 L750 403" fill="none" stroke="#9aa1ad" stroke-width="26" stroke-linecap="round" stroke-linejoin="round"/><path class="ductus__done" d="M1100 383 L1100 383" fill="none" stroke="#9aa1ad" stroke-width="26" stroke-linecap="round" stroke-linejoin="round"/><path class="ductus__pen" d="M1100 383 L1020 410 L940 383 L881 310 L860 210 L881 110 L940 37 L1020 10 L1100 37 L1159 110 L1180 210 L1159 310 L1100 383" fill="none" stroke="#3b5bdb" stroke-width="26" stroke-linecap="round" stroke-linejoin="round"/><circle class="ductus__tip" cx="1100" cy="383" r="34" fill="#3b5bdb"/></g><text class="ductus__caption" x="643" y="373.7" text-anchor="middle" font-size="108.7" fill="#6b7280"><tspan x="643" y="373.7">3. restart and circle</tspan><tspan x="643" y="506.3">around the right bowl</tspan></text></svg><rect x="496" y="42" width="150" height="148.16" rx="6" fill="#fdfdfc" stroke="#dbe1ea" stroke-width="1"/><svg x="496" y="42" width="150" height="148.16" viewBox="-35 -795 1356 1339.4" preserveAspectRatio="xMidYMid meet" overflow="hidden"><g transform="scale(1,-1)"><path class="ductus__glyph" d="M35 236Q35 314 68 373.5Q101 433 159.5 466.5Q218 500 296 500Q375 500 433.5 467.5Q492 435 525 376Q558 317 558 237Q558 163 526 106.5Q494 50 435 19Q376 -12 296 -12Q217 -12 158.5 19Q100 50 67.5 105.5Q35 161 35 236ZM118 248Q118 167 163 117Q208 67 296 67Q356 67 395.5 89.5Q435 112 455 152Q475 192 475 242Q475 293 455.5 334.5Q436 376 396.5 400.5Q357 425 296 425Q235 425 195.5 400.5Q156 376 137 336Q118 296 118 248ZM709 -12Q642 -12 591.5 22Q541 56 502 111L542 176Q570 139 597.5 115Q625 91 654.5 79Q684 67 716 67Q767 67 794 99.5Q821 132 821 193Q821 251 797.5 294.5Q774 338 734.5 369.5Q695 401 645 423L682 500Q744 474 794 430Q844 386 874 328Q904 270 904 199Q904 100 854 44Q804 -12 709 -12ZM837 -125L844 16L919 16L927 -125L837 -125ZM1056 -12Q989 -12 938.5 22Q888 56 849 111L889 176Q917 139 944.5 115Q972 91 1001.5 79Q1031 67 1063 67Q1114 67 1141 99.5Q1168 132 1168 193Q1168 251 1144.5 294.5Q1121 338 1081.5 369.5Q1042 401 992 423L1029 500Q1091 474 1141 430Q1191 386 1221 328Q1251 270 1251 199Q1251 100 1201 44Q1151 -12 1056 -12ZM265 425Q236 425 209.5 436Q183 447 161 477.5Q139 508 123 564L206 591Q221 536 235 518Q249 500 271 500Q291 500 308.5 512.5Q326 525 358 565L389 605Q423 649 451.5 675Q480 701 512 713Q544 725 588 725L594 648Q559 646 535.5 637Q512 628 492.5 608.5Q473 589 447 556L424 526Q396 490 371 468Q346 446 320.5 435.5Q295 425 265 425Z" fill="#e0ddd6" fill-rule="nonzero"/><path class="ductus__done" d="M505 245 L500 315 L470 375 L420 425 L355 455 L290 465 L220 455 L155 425 L105 375 L75 315 L70 245 L78 175 L110 115 L160 70 L225 42 L295 35 L365 48 L425 80 L470 130 L498 190 L505 245" fill="none" stroke="#9aa1ad" stroke-width="26" stroke-linecap="round" stroke-linejoin="round"/><path class="ductus__done" d="M750 403 L670 430 L590 403 L531 330 L510 230 L531 130 L590 57 L670 30 L750 57 L809 130 L830 230 L809 330 L750 403" fill="none" stroke="#9aa1ad" stroke-width="26" stroke-linecap="round" stroke-linejoin="round"/><path class="ductus__done" d="M1100 383 L1020 410 L940 383 L881 310 L860 210 L881 110 L940 37 L1020 10 L1100 37 L1159 110 L1180 210 L1159 310 L1100 383" fill="none" stroke="#9aa1ad" stroke-width="26" stroke-linecap="round" stroke-linejoin="round"/><path class="ductus__done" d="M160 565 L160 565" fill="none" stroke="#9aa1ad" stroke-width="26" stroke-linecap="round" stroke-linejoin="round"/><path class="ductus__pen" d="M160 565 L175 525 L205 485 L245 460 L285 458 L325 480 L360 520 L395 565 L435 615 L480 660 L530 690 L580 700" fill="none" stroke="#3b5bdb" stroke-width="26" stroke-linecap="round" stroke-linejoin="round"/><circle class="ductus__tip" cx="580" cy="700" r="34" fill="#3b5bdb"/></g><text class="ductus__caption" x="643" y="373.7" text-anchor="middle" font-size="108.7" fill="#6b7280"><tspan x="643" y="373.7">4. restart and sweep</tspan><tspan x="643" y="506.3">the upper flourish</tspan></text></svg><rect x="656" y="42" width="150" height="148.16" rx="6" fill="#fdfdfc" stroke="#dbe1ea" stroke-width="1"/><svg x="656" y="42" width="150" height="148.16" viewBox="-35 -795 1356 1339.4" preserveAspectRatio="xMidYMid meet" overflow="hidden"><g transform="scale(1,-1)"><path class="ductus__glyph" d="M35 236Q35 314 68 373.5Q101 433 159.5 466.5Q218 500 296 500Q375 500 433.5 467.5Q492 435 525 376Q558 317 558 237Q558 163 526 106.5Q494 50 435 19Q376 -12 296 -12Q217 -12 158.5 19Q100 50 67.5 105.5Q35 161 35 236ZM118 248Q118 167 163 117Q208 67 296 67Q356 67 395.5 89.5Q435 112 455 152Q475 192 475 242Q475 293 455.5 334.5Q436 376 396.5 400.5Q357 425 296 425Q235 425 195.5 400.5Q156 376 137 336Q118 296 118 248ZM709 -12Q642 -12 591.5 22Q541 56 502 111L542 176Q570 139 597.5 115Q625 91 654.5 79Q684 67 716 67Q767 67 794 99.5Q821 132 821 193Q821 251 797.5 294.5Q774 338 734.5 369.5Q695 401 645 423L682 500Q744 474 794 430Q844 386 874 328Q904 270 904 199Q904 100 854 44Q804 -12 709 -12ZM837 -125L844 16L919 16L927 -125L837 -125ZM1056 -12Q989 -12 938.5 22Q888 56 849 111L889 176Q917 139 944.5 115Q972 91 1001.5 79Q1031 67 1063 67Q1114 67 1141 99.5Q1168 132 1168 193Q1168 251 1144.5 294.5Q1121 338 1081.5 369.5Q1042 401 992 423L1029 500Q1091 474 1141 430Q1191 386 1221 328Q1251 270 1251 199Q1251 100 1201 44Q1151 -12 1056 -12ZM265 425Q236 425 209.5 436Q183 447 161 477.5Q139 508 123 564L206 591Q221 536 235 518Q249 500 271 500Q291 500 308.5 512.5Q326 525 358 565L389 605Q423 649 451.5 675Q480 701 512 713Q544 725 588 725L594 648Q559 646 535.5 637Q512 628 492.5 608.5Q473 589 447 556L424 526Q396 490 371 468Q346 446 320.5 435.5Q295 425 265 425Z" fill="#e0ddd6" fill-rule="nonzero"/><path class="ductus__done" d="M505 245 L500 315 L470 375 L420 425 L355 455 L290 465 L220 455 L155 425 L105 375 L75 315 L70 245 L78 175 L110 115 L160 70 L225 42 L295 35 L365 48 L425 80 L470 130 L498 190 L505 245" fill="none" stroke="#9aa1ad" stroke-width="26" stroke-linecap="round" stroke-linejoin="round"/><path class="ductus__done" d="M750 403 L670 430 L590 403 L531 330 L510 230 L531 130 L590 57 L670 30 L750 57 L809 130 L830 230 L809 330 L750 403" fill="none" stroke="#9aa1ad" stroke-width="26" stroke-linecap="round" stroke-linejoin="round"/><path class="ductus__done" d="M1100 383 L1020 410 L940 383 L881 310 L860 210 L881 110 L940 37 L1020 10 L1100 37 L1159 110 L1180 210 L1159 310 L1100 383" fill="none" stroke="#9aa1ad" stroke-width="26" stroke-linecap="round" stroke-linejoin="round"/><path class="ductus__done" d="M160 565 L175 525 L205 485 L245 460 L285 458 L325 480 L360 520 L395 565 L435 615 L480 660 L530 690 L580 700" fill="none" stroke="#9aa1ad" stroke-width="26" stroke-linecap="round" stroke-linejoin="round"/><path class="ductus__done" d="M882 12 L882 12" fill="none" stroke="#9aa1ad" stroke-width="26" stroke-linecap="round" stroke-linejoin="round"/><path class="ductus__pen" d="M882 12 L882 -32 L882 -78 L882 -120" fill="none" stroke="#3b5bdb" stroke-width="26" stroke-linecap="round" stroke-linejoin="round"/><circle class="ductus__tip" cx="882" cy="-120" r="34" fill="#3b5bdb"/></g><text class="ductus__caption" x="643" y="373.7" text-anchor="middle" font-size="108.7" fill="#6b7280"><tspan x="643" y="373.7">5. restart and draw the</tspan><tspan x="643" y="506.3">separate downward stem</tspan></text></svg><text x="16" y="203.16" font-family="Latin Modern Sans, sans-serif" font-size="10" fill="#64748b">Stroke order after Sathish Shanmugam, Write Telugu Alphabets, consonant ఝ packaged tracing guide res/drawable/dot_stroke_c_2_4_jha.png, movements 1–5</text><text x="16" y="215.66" font-family="Latin Modern Sans, sans-serif" font-size="10" fill="#64748b">(version 2.6)</text><text x="16" y="228.16" font-family="Latin Modern Sans, sans-serif" font-size="10" fill="#64748b">This order is attested, not standardised; the source records where it varies.</text></svg>
