<svg xmlns="http://www.w3.org/2000/svg" width="342" height="405.01" viewBox="0 0 342 405.01" role="img" aria-label="How to write و: one unbroken stroke · 2 movements"><title>Writing و</title><desc>2 frames; frame N shows movements 1 to N of و (perso-arabic), the movement being added drawn in ink over the finished letter, whose outline is read from _fonts/NotoNaskhArabic-Static.ttf. Stroke order after Persian Online, How to Write Persian Characters, و demonstration at 02:43–02:45 (Liberal Arts Instructional Technology Services, Univ. of Texas at Austin) &lt;https://laits.utexas.edu/persian_grammar/video/gr/kooroshalphabet&gt;. Source note on variation: The cited freehand lesson demonstrates isolated و as one continuous Naskh stroke: its small head loops before flowing into the leftward curving tail with no pen lift. This non-connector does not join to a following letter; the isolated learner path fits the vendored Noto Naskh outline.</desc><rect x="0" y="0" width="342" height="405.01" fill="#ffffff"/><text x="16" y="31" font-family="Latin Modern Sans, sans-serif" font-size="15" fill="#172033">How it is written — one unbroken stroke · 2 movements</text><rect x="16" y="42" width="150" height="261.51" rx="6" fill="#fdfdfc" stroke="#dbe1ea" stroke-width="1"/><svg x="16" y="42" width="150" height="261.51" viewBox="-36 -410 523 911.8" preserveAspectRatio="xMidYMid meet" overflow="hidden"><g transform="scale(1,-1)"><path class="ductus__glyph" d="M193 -203Q172 -203 141.5 -193.5Q111 -184 81.5 -169Q52 -154 34 -139L48 -106Q75 -116 105.5 -120.5Q136 -125 170 -125Q245 -125 298.5 -80.5Q352 -36 380 49L379 57Q350 29 315 14.5Q280 0 245 0Q187 0 153.5 35.5Q120 71 120 129Q120 180 140.5 229.5Q161 279 194 310Q227 340 261 340Q300 340 335.5 305.5Q371 271 394 207Q406 175 411.5 143.5Q417 112 417 81Q417 34 402.5 -13Q388 -60 362.5 -99.5Q337 -139 303 -165Q251 -203 193 -203ZM269 82Q294 82 314.5 86Q335 90 370 104Q358 151 336 187Q314 223 288 240Q267 255 246 255Q225 255 205 239.5Q185 224 171 200Q158 176 158 157Q158 121 187 101.5Q216 82 269 82Z" fill="#e0ddd6" fill-rule="nonzero"/><path class="ductus__done" d="M220 300 L220 300" fill="none" stroke="#9aa1ad" stroke-width="26" stroke-linecap="round" stroke-linejoin="round"/><path class="ductus__pen" d="M220 300 L265 315 L315 285 L355 235 L385 170 L393 115 L380 70 L340 45 L285 40 L225 45 L175 80 L145 125 L145 165 L170 215 L210 260 L250 285 L300 285 L345 245 L375 185 L390 115 L390 60" fill="none" stroke="#3b5bdb" stroke-width="26" stroke-linecap="round" stroke-linejoin="round"/><circle class="ductus__tip" cx="390" cy="60" r="34" fill="#3b5bdb"/></g><text class="ductus__caption" x="225.5" y="384.9" text-anchor="middle" font-size="41.9" fill="#6b7280"><tspan x="225.5" y="384.9">1. shape the small head</tspan><tspan x="225.5" y="436">loop</tspan></text></svg><rect x="176" y="42" width="150" height="261.51" rx="6" fill="#fdfdfc" stroke="#dbe1ea" stroke-width="1"/><svg x="176" y="42" width="150" height="261.51" viewBox="-36 -410 523 911.8" preserveAspectRatio="xMidYMid meet" overflow="hidden"><g transform="scale(1,-1)"><path class="ductus__glyph" d="M193 -203Q172 -203 141.5 -193.5Q111 -184 81.5 -169Q52 -154 34 -139L48 -106Q75 -116 105.5 -120.5Q136 -125 170 -125Q245 -125 298.5 -80.5Q352 -36 380 49L379 57Q350 29 315 14.5Q280 0 245 0Q187 0 153.5 35.5Q120 71 120 129Q120 180 140.5 229.5Q161 279 194 310Q227 340 261 340Q300 340 335.5 305.5Q371 271 394 207Q406 175 411.5 143.5Q417 112 417 81Q417 34 402.5 -13Q388 -60 362.5 -99.5Q337 -139 303 -165Q251 -203 193 -203ZM269 82Q294 82 314.5 86Q335 90 370 104Q358 151 336 187Q314 223 288 240Q267 255 246 255Q225 255 205 239.5Q185 224 171 200Q158 176 158 157Q158 121 187 101.5Q216 82 269 82Z" fill="#e0ddd6" fill-rule="nonzero"/><path class="ductus__done" d="M220 300 L265 315 L315 285 L355 235 L385 170 L393 115 L380 70 L340 45 L285 40 L225 45 L175 80 L145 125 L145 165 L170 215 L210 260 L250 285 L300 285 L345 245 L375 185 L390 115 L390 60 L390 60" fill="none" stroke="#9aa1ad" stroke-width="26" stroke-linecap="round" stroke-linejoin="round"/><path class="ductus__pen" d="M390 60 L370 -5 L340 -70 L300 -120 L250 -160 L195 -170 L135 -160 L80 -140 L45 -120" fill="none" stroke="#3b5bdb" stroke-width="26" stroke-linecap="round" stroke-linejoin="round"/><circle class="ductus__tip" cx="45" cy="-120" r="34" fill="#3b5bdb"/></g><text class="ductus__caption" x="225.5" y="384.9" text-anchor="middle" font-size="41.9" fill="#6b7280"><tspan x="225.5" y="384.9">2. flow into the</tspan><tspan x="225.5" y="436">leftward tail without</tspan><tspan x="225.5" y="487.1">lifting</tspan></text></svg><text x="16" y="316.51" font-family="Latin Modern Sans, sans-serif" font-size="10" fill="#64748b">Stroke order after Persian Online, How to Write Persian</text><text x="16" y="329.01" font-family="Latin Modern Sans, sans-serif" font-size="10" fill="#64748b">Characters, و demonstration at 02:43–02:45 (Liberal Arts</text><text x="16" y="341.51" font-family="Latin Modern Sans, sans-serif" font-size="10" fill="#64748b">Instructional Technology Services, Univ. of Texas at</text><text x="16" y="354.01" font-family="Latin Modern Sans, sans-serif" font-size="10" fill="#64748b">Austin)</text><text x="16" y="366.51" font-family="Latin Modern Sans, sans-serif" font-size="10" fill="#64748b">This order is attested, not standardised; the source</text><text x="16" y="379.01" font-family="Latin Modern Sans, sans-serif" font-size="10" fill="#64748b">records where it varies.</text></svg>
