<svg xmlns="http://www.w3.org/2000/svg" width="1014" height="593.11" viewBox="0 0 1014 593.11" role="img" aria-label="How to write ગામ: 3 parts, ગ, ા, મ, one after another"><title>Writing ગામ</title><desc>3 parts written one after another: ગ, ા, મ (gujarati). The parts are in the order the hand writes them, which in Gujarati is the order they are typed: each sign comes after its consonant, even the i sign, which sits to the left of it. Each sign is drawn on its own, without the consonant it attaches to. Each part has its own group of frames; frame N of a group shows movements 1 to N of that part, the movement being added drawn in ink over the finished part, whose outline is read from _fonts/NotoSansGujarati-Static.ttf. Each part is drawn at its own scale from its own cited stroke order, so the strip does not show how large the parts are next to each other, how far apart they sit, or any join between them. Stroke order: ગ: t30apps.com, ‘Gujarati Alphabet Writing Practice’, version 1.0, ગ animation, first and second SVG paths &lt;https://www.t30apps.com/gujarati-alphabet-writing/&gt;; ા: Tejas Gajjar, KanoAI, Gujarati barakhadi centre-line stroke templates (interpolate-svg/svgs/barakhadi), commit 9d3e294, 1_k/1_ka.svg, group g1 (stroke g1s0): the aa sign drawn after the consonant (GitHub, 2026) &lt;https://github.com/gajjartejas/KanoAI/tree/9d3e2949a3f265448e430e15329093ea3aa516b8/interpolate-svg/svgs/barakhadi&gt;; મ: t30apps.com, ‘Gujarati Alphabet Writing Practice’, version 1.0, મ animation, first and second SVG paths &lt;https://www.t30apps.com/gujarati-alphabet-writing/&gt;. Source notes on variation: ગ: The teaching app animates ગ as two ordered pen-down runs. Its first SVG path begins at the upper left, circles clockwise around the rounded body, and finishes at the lower left. The animation lifts once and its second SVG path descends the full right spine before turning through its lower foot. The remaining path slots are empty. The app explicitly says that depicted forms and stroke orders can differ by source and should be treated as one variant, not a universal standard. The bundled Noto Sans Gujarati glyph preserves the rounded left body and tall right spine, but its printed body is broader and the spine foot more angular than the animated school-hand form. This learner path preserves the source&apos;s rounded-body-before-right-spine order and one-lift evidence while fitting both runs to the font&apos;s ink. Individual handwriting may narrow, round, simplify, retrace, or slant the body, spine, and terminals differently. ા: In the template for કા, and in all 32 consonant rows whose consonant keeps its bare outline, ા is one pen-down run that starts at the top of the bar, draws it straight down, and ends in a short foot to the right at the baseline. t30apps&apos; Gujarati Alphabet Writing Practice, already cited for આ, draws its trailing ā stem the same way: after the body, down into a matching foot. HP Labs India&apos;s Lipi Toolkit Devanagari recognizer (native writers&apos; pen traces of the matching Devanagari sign, written alone) agrees: 55 of its 81 stored prototypes of the aa sign (68%) are one stroke, and 98% of those move downward. KanoAI&apos;s templates are hand-made centre lines, one path per pen-down run, which the app animates in the author&apos;s handwriting order and direction; one template per sign is placed beside every consonant, so the row counts show consistency, not separate writers. KanoAI&apos;s LICENSE file says MIT while its README says GNU GPL, so the licence is ambiguous: only facts are cited here (order, start, direction and pen lifts), and no template path data was copied. The path is fitted to the bundled Noto Sans Gujarati outline of the sign on its own. Handwriting varies by writer. મ: The teaching app animates મ as two ordered pen-down runs. Its first SVG path begins at the upper left, curls down through the left body and compact inner turn, then exits right across the long shoulder. The animation lifts once and its second SVG path descends the separate tall right spine before turning through the lower-right foot. The remaining path slots are empty. The app explicitly says that depicted forms and stroke orders can differ by source and should be treated as one variant, not a universal standard. The bundled Noto Sans Gujarati glyph preserves the left entry, compact inner turn, long shoulder, tall right spine, and lower foot, but its printed turns are wider and more angular and its spine straighter than the animated school-hand form. This learner path preserves the source&apos;s left-body-before-right-spine order and one-lift evidence while fitting both runs to the font&apos;s ink. Individual handwriting may narrow, round, simplify, retrace, or slant the body, turn, shoulder, spine, foot, and terminals differently.</desc><rect x="0" y="0" width="1014" height="593.11" fill="#ffffff"/><text x="16" y="31" font-family="Latin Modern Sans, sans-serif" font-size="15" fill="#172033">How it is written — 3 parts, one after another</text><text x="16" y="54" font-family="Latin Modern Sans, sans-serif" font-size="12" fill="#172033">Part 1 of 3 — 2 strokes · 1 pen lift · 2</text><text x="16" y="69" font-family="Latin Modern Sans, sans-serif" font-size="12" fill="#172033">movements</text><rect x="16" y="76" width="150" height="217.57" rx="6" fill="#fdfdfc" stroke="#dbe1ea" stroke-width="1"/><svg x="16" y="76" width="150" height="217.57" viewBox="-59 -673 775 1124.1" preserveAspectRatio="xMidYMid meet" overflow="hidden"><g transform="scale(1,-1)"><path class="ductus__glyph" d="M210 178Q155 178 105 207Q55 236 11 303L74 346Q108 295 138 273Q168 251 206 251Q247 251 273 282Q299 313 299 384Q299 461 269.5 495.5Q240 530 188 530Q157 530 129 522.5Q101 515 79 503L54 570Q87 587 123.5 595Q160 603 192 603Q275 603 327.5 549.5Q380 496 380 383Q380 319 364.5 279Q349 239 324 217Q299 195 269 186.5Q239 178 210 178ZM627 0Q584 0 555.5 9.5Q527 19 510 37Q494 54 486.5 79Q479 104 479 148L479 603L559 592L559 152Q559 125 562 112.5Q565 100 571 92Q582 78 603.5 75.5Q625 73 646 73L638 0L627 0Z" fill="#e0ddd6" fill-rule="nonzero"/><path class="ductus__done" d="M80 555 L80 555" fill="none" stroke="#9aa1ad" stroke-width="26" stroke-linecap="round" stroke-linejoin="round"/><path class="ductus__pen" d="M80 555 L130 570 L185 570 L235 555 L275 525 L305 485 L325 435 L335 380 L330 330 L315 285 L285 245 L245 220 L205 210 L165 220 L125 240 L90 270 L60 315" fill="none" stroke="#3b5bdb" stroke-width="26" stroke-linecap="round" stroke-linejoin="round"/><circle class="ductus__tip" cx="60" cy="315" r="34" fill="#3b5bdb"/></g><text class="ductus__caption" x="328.5" y="202.1" text-anchor="middle" font-size="62.1" fill="#6b7280"><tspan x="328.5" y="202.1">1. circle the rounded</tspan><tspan x="328.5" y="277.9">body from upper left to</tspan><tspan x="328.5" y="353.6">lower left</tspan></text></svg><rect x="176" y="76" width="150" height="217.57" rx="6" fill="#fdfdfc" stroke="#dbe1ea" stroke-width="1"/><svg x="176" y="76" width="150" height="217.57" viewBox="-59 -673 775 1124.1" preserveAspectRatio="xMidYMid meet" overflow="hidden"><g transform="scale(1,-1)"><path class="ductus__glyph" d="M210 178Q155 178 105 207Q55 236 11 303L74 346Q108 295 138 273Q168 251 206 251Q247 251 273 282Q299 313 299 384Q299 461 269.5 495.5Q240 530 188 530Q157 530 129 522.5Q101 515 79 503L54 570Q87 587 123.5 595Q160 603 192 603Q275 603 327.5 549.5Q380 496 380 383Q380 319 364.5 279Q349 239 324 217Q299 195 269 186.5Q239 178 210 178ZM627 0Q584 0 555.5 9.5Q527 19 510 37Q494 54 486.5 79Q479 104 479 148L479 603L559 592L559 152Q559 125 562 112.5Q565 100 571 92Q582 78 603.5 75.5Q625 73 646 73L638 0L627 0Z" fill="#e0ddd6" fill-rule="nonzero"/><path class="ductus__done" d="M80 555 L130 570 L185 570 L235 555 L275 525 L305 485 L325 435 L335 380 L330 330 L315 285 L285 245 L245 220 L205 210 L165 220 L125 240 L90 270 L60 315" fill="none" stroke="#9aa1ad" stroke-width="26" stroke-linecap="round" stroke-linejoin="round"/><path class="ductus__done" d="M520 560 L520 560" fill="none" stroke="#9aa1ad" stroke-width="26" stroke-linecap="round" stroke-linejoin="round"/><path class="ductus__pen" d="M520 560 L520 500 L520 430 L520 350 L520 270 L520 190 L520 120 L540 75 L580 45 L620 38" fill="none" stroke="#3b5bdb" stroke-width="26" stroke-linecap="round" stroke-linejoin="round"/><circle class="ductus__tip" cx="620" cy="38" r="34" fill="#3b5bdb"/></g><text class="ductus__caption" x="328.5" y="202.1" text-anchor="middle" font-size="62.1" fill="#6b7280"><tspan x="328.5" y="202.1">2. lift, then descend</tspan><tspan x="328.5" y="277.9">the right spine and</tspan><tspan x="328.5" y="353.6">turn through its lower</tspan><tspan x="328.5" y="429.4">foot</tspan></text></svg><text x="352" y="54" font-family="Latin Modern Sans, sans-serif" font-size="12" fill="#172033">Part 2 of 3 — one unbroken stroke · 2 movements</text><rect x="352" y="76" width="150" height="428.11" rx="6" fill="#fdfdfc" stroke="#dbe1ea" stroke-width="1"/><svg x="352" y="76" width="150" height="428.11" viewBox="20 -673 307 876.2" preserveAspectRatio="xMidYMid meet" overflow="hidden"><g transform="scale(1,-1)"><path class="ductus__glyph" d="M239 0Q196 0 168 9.5Q140 19 122 37Q105 54 97.5 79Q90 104 90 148L90 603L170 593L170 152Q170 124 173 112Q176 100 185 90Q196 77 215.5 75Q235 73 257 73L249 0L239 0Z" fill="#e0ddd6" fill-rule="nonzero"/><path class="ductus__done" d="M130 595 L130 595" fill="none" stroke="#9aa1ad" stroke-width="26" stroke-linecap="round" stroke-linejoin="round"/><path class="ductus__pen" d="M130 595 L130 500 L130 400 L130 300 L130 200 L131 140" fill="none" stroke="#3b5bdb" stroke-width="26" stroke-linecap="round" stroke-linejoin="round"/><circle class="ductus__tip" cx="131" cy="140" r="34" fill="#3b5bdb"/></g><text class="ductus__caption" x="173.5" y="164.6" text-anchor="middle" font-size="24.6" fill="#6b7280"><tspan x="173.5" y="164.6">1. draw the bar down</tspan></text></svg><rect x="512" y="76" width="150" height="428.11" rx="6" fill="#fdfdfc" stroke="#dbe1ea" stroke-width="1"/><svg x="512" y="76" width="150" height="428.11" viewBox="20 -673 307 876.2" preserveAspectRatio="xMidYMid meet" overflow="hidden"><g transform="scale(1,-1)"><path class="ductus__glyph" d="M239 0Q196 0 168 9.5Q140 19 122 37Q105 54 97.5 79Q90 104 90 148L90 603L170 593L170 152Q170 124 173 112Q176 100 185 90Q196 77 215.5 75Q235 73 257 73L249 0L239 0Z" fill="#e0ddd6" fill-rule="nonzero"/><path class="ductus__done" d="M130 595 L130 500 L130 400 L130 300 L130 200 L131 140 L131 140" fill="none" stroke="#9aa1ad" stroke-width="26" stroke-linecap="round" stroke-linejoin="round"/><path class="ductus__pen" d="M131 140 L136 95 L155 62 L185 44 L215 38 L248 37" fill="none" stroke="#3b5bdb" stroke-width="26" stroke-linecap="round" stroke-linejoin="round"/><circle class="ductus__tip" cx="248" cy="37" r="34" fill="#3b5bdb"/></g><text class="ductus__caption" x="173.5" y="164.6" text-anchor="middle" font-size="24.6" fill="#6b7280"><tspan x="173.5" y="164.6">2. turn into the foot</tspan><tspan x="173.5" y="194.6">to the right</tspan></text></svg><text x="688" y="54" font-family="Latin Modern Sans, sans-serif" font-size="12" fill="#172033">Part 3 of 3 — 2 strokes · 1 pen lift · 2</text><text x="688" y="69" font-family="Latin Modern Sans, sans-serif" font-size="12" fill="#172033">movements</text><rect x="688" y="76" width="150" height="238.97" rx="6" fill="#fdfdfc" stroke="#dbe1ea" stroke-width="1"/><svg x="688" y="76" width="150" height="238.97" viewBox="-26 -673 682 1086.5" preserveAspectRatio="xMidYMid meet" overflow="hidden"><g transform="scale(1,-1)"><path class="ductus__glyph" d="M166 152Q140 152 113 172Q86 192 68.5 220.5Q51 249 51 274Q51 291 64 303.5Q77 316 107 316L131 316L131 440Q131 468 128 480Q125 492 119 500Q109 514 87 517Q65 520 44 520L52 592L63 592Q146 592 180 556Q197 539 204 513.5Q211 488 211 444L211 316L420 316L420 603L500 592L500 152Q500 125 503 112.5Q506 100 512 92Q523 78 544.5 75.5Q566 73 586 73L579 0L568 0Q525 0 496.5 9.5Q468 19 451 37Q435 54 427.5 79Q420 104 420 148L420 244L211 244L211 215Q211 181 197 166.5Q183 152 166 152Z" fill="#e0ddd6" fill-rule="nonzero"/><path class="ductus__done" d="M50 556 L50 556" fill="none" stroke="#9aa1ad" stroke-width="26" stroke-linecap="round" stroke-linejoin="round"/><path class="ductus__pen" d="M50 556 L90 560 L130 550 L165 520 L170 480 L170 430 L170 380 L170 330 L170 280 L165 230 L150 195 L130 190 L100 210 L80 240 L80 275 L105 280 L150 280 L210 280 L280 280 L350 280 L420 280" fill="none" stroke="#3b5bdb" stroke-width="26" stroke-linecap="round" stroke-linejoin="round"/><circle class="ductus__tip" cx="420" cy="280" r="34" fill="#3b5bdb"/></g><text class="ductus__caption" x="315" y="194.6" text-anchor="middle" font-size="54.6" fill="#6b7280"><tspan x="315" y="194.6">1. curl through the left</tspan><tspan x="315" y="261.2">body and inner turn,</tspan><tspan x="315" y="327.8">then exit across the</tspan><tspan x="315" y="394.4">long right shoulder</tspan></text></svg><rect x="848" y="76" width="150" height="238.97" rx="6" fill="#fdfdfc" stroke="#dbe1ea" stroke-width="1"/><svg x="848" y="76" width="150" height="238.97" viewBox="-26 -673 682 1086.5" preserveAspectRatio="xMidYMid meet" overflow="hidden"><g transform="scale(1,-1)"><path class="ductus__glyph" d="M166 152Q140 152 113 172Q86 192 68.5 220.5Q51 249 51 274Q51 291 64 303.5Q77 316 107 316L131 316L131 440Q131 468 128 480Q125 492 119 500Q109 514 87 517Q65 520 44 520L52 592L63 592Q146 592 180 556Q197 539 204 513.5Q211 488 211 444L211 316L420 316L420 603L500 592L500 152Q500 125 503 112.5Q506 100 512 92Q523 78 544.5 75.5Q566 73 586 73L579 0L568 0Q525 0 496.5 9.5Q468 19 451 37Q435 54 427.5 79Q420 104 420 148L420 244L211 244L211 215Q211 181 197 166.5Q183 152 166 152Z" fill="#e0ddd6" fill-rule="nonzero"/><path class="ductus__done" d="M50 556 L90 560 L130 550 L165 520 L170 480 L170 430 L170 380 L170 330 L170 280 L165 230 L150 195 L130 190 L100 210 L80 240 L80 275 L105 280 L150 280 L210 280 L280 280 L350 280 L420 280" fill="none" stroke="#9aa1ad" stroke-width="26" stroke-linecap="round" stroke-linejoin="round"/><path class="ductus__done" d="M460 585 L460 585" fill="none" stroke="#9aa1ad" stroke-width="26" stroke-linecap="round" stroke-linejoin="round"/><path class="ductus__pen" d="M460 585 L460 500 L460 400 L460 300 L460 200 L460 125 L468 80 L490 55 L530 40 L570 38 L582 38" fill="none" stroke="#3b5bdb" stroke-width="26" stroke-linecap="round" stroke-linejoin="round"/><circle class="ductus__tip" cx="582" cy="38" r="34" fill="#3b5bdb"/></g><text class="ductus__caption" x="315" y="194.6" text-anchor="middle" font-size="54.6" fill="#6b7280"><tspan x="315" y="194.6">2. lift, descend the</tspan><tspan x="315" y="261.2">tall right spine, and</tspan><tspan x="315" y="327.8">turn through its lower</tspan><tspan x="315" y="394.4">foot</tspan></text></svg><text x="16" y="517.11" font-family="Latin Modern Sans, sans-serif" font-size="10" fill="#64748b">Part 1: stroke order after t30apps.com, ‘Gujarati Alphabet Writing Practice’, version 1.0, ગ animation, first and second SVG paths</text><text x="16" y="529.61" font-family="Latin Modern Sans, sans-serif" font-size="10" fill="#64748b">Part 2: stroke order after Tejas Gajjar, KanoAI, Gujarati barakhadi centre-line stroke templates (interpolate-svg/svgs/barakhadi), commit 9d3e294, 1_k/1_ka.svg, group g1 (stroke g1s0): the</text><text x="16" y="542.11" font-family="Latin Modern Sans, sans-serif" font-size="10" fill="#64748b">aa sign drawn after the consonant (GitHub, 2026)</text><text x="16" y="554.61" font-family="Latin Modern Sans, sans-serif" font-size="10" fill="#64748b">Part 3: stroke order after t30apps.com, ‘Gujarati Alphabet Writing Practice’, version 1.0, મ animation, first and second SVG paths</text><text x="16" y="567.11" font-family="Latin Modern Sans, sans-serif" font-size="10" fill="#64748b">This order is attested, not standardised; the source records where it varies.</text></svg>
